<svg id="svg" version="1.1" xmlns="http://www.w3.org/2000/svg" xmlns:xlink="http://www.w3.org/1999/xlink" width="400" height="400" viewBox="0, 0, 400,400"><g id="svgg"><path id="path0" d="M176.800 0.400 C 176.800 0.641,175.133 0.800,172.600 0.800 C 170.290 0.800,168.400 0.964,168.400 1.164 C 168.400 1.364,166.825 1.658,164.900 1.816 C 162.975 1.974,161.302 2.256,161.183 2.441 C 161.063 2.627,159.668 2.900,158.083 3.047 C 156.497 3.194,155.200 3.446,155.200 3.606 C 155.200 3.766,154.120 4.019,152.800 4.168 C 151.480 4.318,150.400 4.588,150.400 4.768 C 150.400 4.949,149.320 5.219,148.000 5.368 C 146.680 5.518,145.600 5.787,145.600 5.967 C 145.600 6.147,144.854 6.395,143.942 6.517 C 143.031 6.639,142.176 6.905,142.042 7.108 C 141.909 7.311,140.900 7.597,139.800 7.744 C 138.700 7.891,137.740 8.189,137.667 8.405 C 137.593 8.622,137.053 8.801,136.467 8.802 C 135.880 8.804,134.884 9.074,134.254 9.402 C 133.624 9.731,132.791 10.000,132.403 10.000 C 132.015 10.000,131.474 10.270,131.200 10.600 C 130.926 10.930,130.197 11.200,129.580 11.200 C 128.962 11.200,128.209 11.448,127.905 11.752 C 127.602 12.055,126.599 12.431,125.677 12.587 C 124.755 12.743,124.000 13.034,124.000 13.235 C 124.000 13.436,123.653 13.600,123.229 13.600 C 122.804 13.600,122.187 13.870,121.857 14.200 C 121.527 14.530,120.906 14.800,120.478 14.800 C 120.049 14.800,119.474 15.070,119.200 15.400 C 118.926 15.730,118.363 16.000,117.950 16.000 C 117.536 16.000,116.525 16.360,115.704 16.800 C 114.884 17.240,113.984 17.600,113.706 17.600 C 113.428 17.600,113.200 17.780,113.200 18.000 C 113.200 18.220,112.853 18.400,112.429 18.400 C 112.004 18.400,111.418 18.640,111.125 18.933 C 110.832 19.225,110.099 19.589,109.496 19.740 C 108.893 19.891,108.400 20.178,108.400 20.376 C 108.400 20.574,107.860 20.855,107.200 21.000 C 106.540 21.145,106.000 21.415,106.000 21.600 C 106.000 21.785,105.460 22.055,104.800 22.200 C 104.140 22.345,103.600 22.608,103.600 22.785 C 103.600 22.962,103.285 23.222,102.900 23.363 C 101.539 23.862,100.000 24.849,100.000 25.222 C 100.000 25.430,99.544 25.600,98.987 25.600 C 98.431 25.600,97.876 25.859,97.754 26.176 C 97.633 26.492,97.008 26.866,96.367 27.007 C 95.725 27.148,95.200 27.429,95.200 27.632 C 95.200 27.834,94.930 28.000,94.600 28.000 C 94.270 28.000,94.000 28.270,94.000 28.600 C 94.000 28.975,93.621 29.200,92.987 29.200 C 92.431 29.200,91.871 29.470,91.745 29.800 C 91.618 30.130,91.283 30.400,91.000 30.400 C 90.717 30.400,90.382 30.670,90.255 31.000 C 90.129 31.330,89.654 31.600,89.200 31.600 C 88.746 31.600,88.271 31.870,88.145 32.200 C 88.018 32.530,87.683 32.800,87.400 32.800 C 87.117 32.800,86.782 33.070,86.655 33.400 C 86.529 33.730,86.054 34.000,85.600 34.000 C 85.146 34.000,84.671 34.270,84.545 34.600 C 84.418 34.930,84.064 35.200,83.757 35.200 C 83.451 35.200,83.200 35.470,83.200 35.800 C 83.200 36.130,82.846 36.400,82.414 36.400 C 81.981 36.400,81.075 36.940,80.400 37.600 C 79.725 38.260,78.999 38.800,78.786 38.800 C 78.574 38.800,78.400 39.070,78.400 39.400 C 78.400 39.730,78.046 40.000,77.614 40.000 C 77.181 40.000,76.275 40.540,75.600 41.200 C 74.925 41.860,74.199 42.400,73.986 42.400 C 73.774 42.400,73.600 42.670,73.600 43.000 C 73.600 43.330,73.349 43.600,73.043 43.600 C 72.736 43.600,72.382 43.870,72.255 44.200 C 72.129 44.530,71.751 44.800,71.415 44.800 C 71.079 44.800,69.983 45.610,68.979 46.600 C 67.975 47.590,66.984 48.400,66.776 48.400 C 66.569 48.400,66.400 48.670,66.400 49.000 C 66.400 49.330,66.130 49.600,65.800 49.600 C 65.470 49.600,65.200 49.870,65.200 50.200 C 65.200 50.530,64.930 50.800,64.600 50.800 C 64.270 50.800,64.000 51.070,64.000 51.400 C 64.000 51.730,63.820 52.000,63.600 52.000 C 63.082 52.000,62.548 52.485,57.516 57.516 C 52.485 62.548,52.000 63.082,52.000 63.600 C 52.000 63.820,51.730 64.000,51.400 64.000 C 51.070 64.000,50.800 64.270,50.800 64.600 C 50.800 64.930,50.530 65.200,50.200 65.200 C 49.870 65.200,49.600 65.470,49.600 65.800 C 49.600 66.130,49.330 66.400,49.000 66.400 C 48.670 66.400,48.400 66.569,48.400 66.776 C 48.400 66.984,47.590 67.975,46.600 68.979 C 45.610 69.983,44.800 71.079,44.800 71.415 C 44.800 71.751,44.530 72.129,44.200 72.255 C 43.870 72.382,43.600 72.736,43.600 73.043 C 43.600 73.349,43.330 73.600,43.000 73.600 C 42.670 73.600,42.400 73.774,42.400 73.986 C 42.400 74.199,41.860 74.925,41.200 75.600 C 40.540 76.275,40.000 77.181,40.000 77.614 C 40.000 78.046,39.730 78.400,39.400 78.400 C 39.070 78.400,38.800 78.574,38.800 78.786 C 38.800 78.999,38.260 79.725,37.600 80.400 C 36.940 81.075,36.400 81.981,36.400 82.414 C 36.400 82.846,36.130 83.200,35.800 83.200 C 35.470 83.200,35.200 83.470,35.200 83.800 C 35.200 84.130,35.016 84.400,34.790 84.400 C 34.565 84.400,34.205 84.805,33.991 85.300 C 33.409 86.645,32.661 87.761,32.100 88.120 C 31.825 88.296,31.600 88.796,31.600 89.232 C 31.600 89.668,31.330 90.129,31.000 90.255 C 30.670 90.382,30.400 90.717,30.400 91.000 C 30.400 91.283,30.130 91.618,29.800 91.745 C 29.470 91.871,29.200 92.431,29.200 92.987 C 29.200 93.621,28.975 94.000,28.600 94.000 C 28.270 94.000,28.000 94.270,28.000 94.600 C 28.000 94.930,27.834 95.200,27.632 95.200 C 27.429 95.200,27.148 95.725,27.007 96.367 C 26.866 97.008,26.492 97.633,26.176 97.754 C 25.859 97.876,25.600 98.411,25.600 98.945 C 25.600 99.478,25.330 100.018,25.000 100.145 C 24.670 100.271,24.400 100.651,24.400 100.987 C 24.400 101.324,24.223 101.600,24.008 101.600 C 23.792 101.600,23.502 102.050,23.364 102.600 C 23.226 103.150,22.967 103.600,22.788 103.600 C 22.610 103.600,22.345 104.140,22.200 104.800 C 22.055 105.460,21.785 106.000,21.600 106.000 C 21.415 106.000,21.145 106.540,21.000 107.200 C 20.855 107.860,20.574 108.400,20.376 108.400 C 20.178 108.400,19.891 108.893,19.740 109.496 C 19.589 110.099,19.225 110.832,18.933 111.125 C 18.640 111.418,18.400 112.004,18.400 112.429 C 18.400 112.853,18.220 113.200,18.000 113.200 C 17.780 113.200,17.600 113.428,17.600 113.706 C 17.600 113.984,17.240 114.884,16.800 115.704 C 16.360 116.525,16.000 117.536,16.000 117.950 C 16.000 118.363,15.730 118.926,15.400 119.200 C 15.070 119.474,14.800 120.049,14.800 120.478 C 14.800 120.906,14.530 121.527,14.200 121.857 C 13.870 122.187,13.600 122.804,13.600 123.229 C 13.600 123.653,13.436 124.000,13.235 124.000 C 13.034 124.000,12.743 124.755,12.587 125.677 C 12.431 126.599,12.055 127.602,11.752 127.905 C 11.448 128.209,11.200 128.962,11.200 129.580 C 11.200 130.197,10.930 130.926,10.600 131.200 C 10.270 131.474,10.000 132.015,10.000 132.403 C 10.000 132.791,9.731 133.624,9.402 134.254 C 9.074 134.884,8.804 135.880,8.802 136.467 C 8.801 137.053,8.622 137.593,8.405 137.667 C 8.189 137.740,7.891 138.700,7.744 139.800 C 7.597 140.900,7.311 141.909,7.108 142.042 C 6.905 142.176,6.639 143.031,6.517 143.942 C 6.395 144.854,6.147 145.600,5.967 145.600 C 5.787 145.600,5.518 146.680,5.368 148.000 C 5.219 149.320,4.949 150.400,4.768 150.400 C 4.588 150.400,4.318 151.480,4.168 152.800 C 4.019 154.120,3.766 155.200,3.606 155.200 C 3.446 155.200,3.194 156.497,3.047 158.083 C 2.900 159.668,2.627 161.063,2.441 161.183 C 2.256 161.302,1.974 162.975,1.816 164.900 C 1.658 166.825,1.364 168.400,1.164 168.400 C 0.964 168.400,0.800 170.290,0.800 172.600 C 0.800 175.133,0.641 176.800,0.400 176.800 C 0.138 176.800,0.000 184.800,0.000 200.000 C 0.000 215.200,0.138 223.200,0.400 223.200 C 0.641 223.200,0.800 224.867,0.800 227.400 C 0.800 229.710,0.964 231.600,1.164 231.600 C 1.364 231.600,1.658 233.175,1.816 235.100 C 1.974 237.025,2.256 238.698,2.441 238.817 C 2.627 238.937,2.900 240.332,3.047 241.917 C 3.194 243.503,3.446 244.800,3.606 244.800 C 3.766 244.800,4.019 245.880,4.168 247.200 C 4.318 248.520,4.588 249.600,4.768 249.600 C 4.949 249.600,5.219 250.680,5.368 252.000 C 5.518 253.320,5.787 254.400,5.967 254.400 C 6.147 254.400,6.395 255.146,6.517 256.058 C 6.639 256.969,6.905 257.824,7.108 257.958 C 7.311 258.091,7.597 259.100,7.744 260.200 C 7.891 261.300,8.189 262.260,8.405 262.333 C 8.622 262.407,8.801 262.947,8.802 263.533 C 8.804 264.120,9.074 265.116,9.402 265.746 C 9.731 266.376,10.000 267.209,10.000 267.597 C 10.000 267.985,10.270 268.526,10.600 268.800 C 10.930 269.074,11.200 269.803,11.200 270.420 C 11.200 271.038,11.448 271.791,11.752 272.095 C 12.055 272.398,12.431 273.401,12.587 274.323 C 12.743 275.245,13.034 276.000,13.235 276.000 C 13.436 276.000,13.600 276.347,13.600 276.771 C 13.600 277.196,13.870 277.813,14.200 278.143 C 14.530 278.473,14.800 279.094,14.800 279.522 C 14.800 279.951,15.070 280.526,15.400 280.800 C 15.730 281.074,16.000 281.637,16.000 282.050 C 16.000 282.464,16.360 283.475,16.800 284.296 C 17.240 285.116,17.600 286.016,17.600 286.294 C 17.600 286.572,17.780 286.800,18.000 286.800 C 18.220 286.800,18.400 287.147,18.400 287.571 C 18.400 287.996,18.640 288.582,18.933 288.875 C 19.225 289.168,19.589 289.901,19.740 290.504 C 19.891 291.107,20.178 291.600,20.376 291.600 C 20.574 291.600,20.855 292.140,21.000 292.800 C 21.145 293.460,21.415 294.000,21.600 294.000 C 21.785 294.000,22.055 294.540,22.200 295.200 C 22.345 295.860,22.610 296.400,22.788 296.400 C 22.967 296.400,23.226 296.850,23.364 297.400 C 23.502 297.950,23.792 298.400,24.008 298.400 C 24.223 298.400,24.400 298.676,24.400 299.013 C 24.400 299.349,24.670 299.729,25.000 299.855 C 25.330 299.982,25.600 300.522,25.600 301.055 C 25.600 301.589,25.859 302.124,26.176 302.246 C 26.492 302.367,26.866 302.992,27.007 303.633 C 27.148 304.275,27.429 304.800,27.632 304.800 C 27.834 304.800,28.000 305.070,28.000 305.400 C 28.000 305.730,28.270 306.000,28.600 306.000 C 28.975 306.000,29.200 306.379,29.200 307.013 C 29.200 307.569,29.470 308.129,29.800 308.255 C 30.130 308.382,30.400 308.717,30.400 309.000 C 30.400 309.283,30.670 309.618,31.000 309.745 C 31.330 309.871,31.600 310.332,31.600 310.768 C 31.600 311.204,31.825 311.704,32.100 311.880 C 32.661 312.239,33.409 313.355,33.991 314.700 C 34.205 315.195,34.565 315.600,34.790 315.600 C 35.016 315.600,35.200 315.870,35.200 316.200 C 35.200 316.530,35.470 316.800,35.800 316.800 C 36.130 316.800,36.400 317.154,36.400 317.586 C 36.400 318.019,36.940 318.925,37.600 319.600 C 38.260 320.275,38.800 321.001,38.800 321.214 C 38.800 321.426,39.070 321.600,39.400 321.600 C 39.730 321.600,40.000 321.954,40.000 322.386 C 40.000 322.819,40.540 323.725,41.200 324.400 C 41.860 325.075,42.400 325.801,42.400 326.014 C 42.400 326.226,42.670 326.400,43.000 326.400 C 43.330 326.400,43.600 326.651,43.600 326.957 C 43.600 327.264,43.870 327.618,44.200 327.745 C 44.530 327.871,44.800 328.249,44.800 328.585 C 44.800 328.921,45.610 330.017,46.600 331.021 C 47.590 332.025,48.400 333.016,48.400 333.224 C 48.400 333.431,48.670 333.600,49.000 333.600 C 49.330 333.600,49.600 333.870,49.600 334.200 C 49.600 334.530,49.870 334.800,50.200 334.800 C 50.530 334.800,50.800 335.070,50.800 335.400 C 50.800 335.730,51.070 336.000,51.400 336.000 C 51.730 336.000,52.000 336.180,52.000 336.400 C 52.000 336.918,52.485 337.452,57.516 342.484 C 62.548 347.515,63.082 348.000,63.600 348.000 C 63.820 348.000,64.000 348.270,64.000 348.600 C 64.000 348.930,64.270 349.200,64.600 349.200 C 64.930 349.200,65.200 349.470,65.200 349.800 C 65.200 350.130,65.470 350.400,65.800 350.400 C 66.130 350.400,66.400 350.670,66.400 351.000 C 66.400 351.330,66.569 351.600,66.776 351.600 C 66.984 351.600,67.975 352.410,68.979 353.400 C 69.983 354.390,71.079 355.200,71.415 355.200 C 71.751 355.200,72.129 355.470,72.255 355.800 C 72.382 356.130,72.736 356.400,73.043 356.400 C 73.349 356.400,73.600 356.670,73.600 357.000 C 73.600 357.330,73.774 357.600,73.986 357.600 C 74.199 357.600,74.925 358.140,75.600 358.800 C 76.275 359.460,77.181 360.000,77.614 360.000 C 78.046 360.000,78.400 360.270,78.400 360.600 C 78.400 360.930,78.574 361.200,78.786 361.200 C 78.999 361.200,79.725 361.740,80.400 362.400 C 81.075 363.060,81.981 363.600,82.414 363.600 C 82.846 363.600,83.200 363.870,83.200 364.200 C 83.200 364.530,83.470 364.800,83.800 364.800 C 84.130 364.800,84.400 364.984,84.400 365.210 C 84.400 365.435,84.805 365.795,85.300 366.009 C 86.645 366.591,87.761 367.339,88.120 367.900 C 88.296 368.175,88.796 368.400,89.232 368.400 C 89.668 368.400,90.129 368.670,90.255 369.000 C 90.382 369.330,90.717 369.600,91.000 369.600 C 91.283 369.600,91.618 369.870,91.745 370.200 C 91.871 370.530,92.431 370.800,92.987 370.800 C 93.621 370.800,94.000 371.025,94.000 371.400 C 94.000 371.730,94.270 372.000,94.600 372.000 C 94.930 372.000,95.200 372.166,95.200 372.368 C 95.200 372.571,95.725 372.852,96.367 372.993 C 97.008 373.134,97.633 373.508,97.754 373.824 C 97.876 374.141,98.431 374.400,98.987 374.400 C 99.621 374.400,100.000 374.625,100.000 375.000 C 100.000 375.333,100.356 375.600,100.800 375.600 C 101.240 375.600,101.600 375.777,101.600 375.992 C 101.600 376.208,102.050 376.498,102.600 376.636 C 103.150 376.774,103.600 377.033,103.600 377.212 C 103.600 377.390,104.140 377.655,104.800 377.800 C 105.460 377.945,106.000 378.215,106.000 378.400 C 106.000 378.585,106.540 378.855,107.200 379.000 C 107.860 379.145,108.400 379.426,108.400 379.624 C 108.400 379.822,108.893 380.109,109.496 380.260 C 110.099 380.411,110.832 380.775,111.125 381.067 C 111.418 381.360,112.004 381.600,112.429 381.600 C 112.853 381.600,113.200 381.780,113.200 382.000 C 113.200 382.220,113.428 382.400,113.706 382.400 C 113.984 382.400,114.884 382.760,115.704 383.200 C 116.525 383.640,117.536 384.000,117.950 384.000 C 118.363 384.000,118.926 384.270,119.200 384.600 C 119.474 384.930,120.107 385.200,120.606 385.200 C 121.106 385.200,121.618 385.470,121.745 385.800 C 121.871 386.130,122.416 386.400,122.954 386.400 C 123.493 386.400,123.995 386.584,124.070 386.809 C 124.145 387.035,124.925 387.332,125.803 387.470 C 126.681 387.608,127.544 387.964,127.720 388.261 C 127.896 388.557,128.639 388.800,129.371 388.800 C 130.103 388.800,130.926 389.070,131.200 389.400 C 131.474 389.730,132.081 390.006,132.549 390.013 C 133.017 390.020,133.749 390.290,134.176 390.613 C 134.604 390.936,135.534 391.200,136.243 391.200 C 136.953 391.200,137.599 391.398,137.680 391.639 C 137.760 391.881,138.720 392.176,139.813 392.296 C 140.906 392.415,141.944 392.758,142.120 393.057 C 142.302 393.366,143.107 393.600,143.987 393.600 C 144.837 393.600,145.601 393.803,145.684 394.051 C 145.766 394.299,146.811 394.595,148.005 394.710 C 149.199 394.825,150.419 395.162,150.716 395.459 C 151.022 395.765,152.100 396.000,153.195 396.000 C 154.339 396.000,155.198 396.195,155.292 396.476 C 155.387 396.760,156.575 397.023,158.225 397.126 C 159.751 397.221,161.127 397.500,161.283 397.746 C 161.440 397.993,163.034 398.259,164.857 398.342 C 166.802 398.430,168.357 398.700,168.659 399.001 C 169.955 400.297,230.411 400.420,231.355 399.129 C 231.697 398.661,232.694 398.453,235.127 398.343 C 236.962 398.259,238.560 397.994,238.717 397.746 C 238.873 397.500,240.249 397.221,241.775 397.126 C 243.425 397.023,244.613 396.760,244.708 396.476 C 244.802 396.195,245.661 396.000,246.805 396.000 C 247.900 396.000,248.978 395.765,249.284 395.459 C 249.581 395.162,250.801 394.825,251.995 394.710 C 253.189 394.595,254.234 394.299,254.316 394.051 C 254.399 393.803,255.177 393.600,256.046 393.600 C 257.081 393.600,257.704 393.393,257.855 393.000 C 258.011 392.595,258.647 392.400,259.814 392.400 C 260.817 392.400,261.795 392.148,262.143 391.800 C 262.473 391.470,263.261 391.200,263.895 391.200 C 264.529 391.200,265.396 390.936,265.824 390.613 C 266.251 390.290,266.983 390.020,267.451 390.013 C 267.919 390.006,268.526 389.730,268.800 389.400 C 269.074 389.070,269.897 388.800,270.629 388.800 C 271.361 388.800,272.104 388.557,272.280 388.261 C 272.456 387.964,273.319 387.608,274.197 387.470 C 275.075 387.332,275.855 387.035,275.930 386.809 C 276.005 386.584,276.507 386.400,277.046 386.400 C 277.584 386.400,278.129 386.130,278.255 385.800 C 278.384 385.465,278.978 385.200,279.600 385.200 C 280.222 385.200,280.816 384.935,280.945 384.600 C 281.071 384.270,281.541 384.000,281.989 384.000 C 282.437 384.000,283.475 383.640,284.296 383.200 C 285.116 382.760,286.016 382.400,286.294 382.400 C 286.572 382.400,286.800 382.220,286.800 382.000 C 286.800 381.780,287.147 381.600,287.571 381.600 C 287.996 381.600,288.582 381.360,288.875 381.067 C 289.168 380.775,289.901 380.411,290.504 380.260 C 291.107 380.109,291.600 379.822,291.600 379.624 C 291.600 379.426,292.140 379.145,292.800 379.000 C 293.460 378.855,294.000 378.585,294.000 378.400 C 294.000 378.215,294.540 377.945,295.200 377.800 C 295.860 377.655,296.400 377.390,296.400 377.212 C 296.400 377.033,296.850 376.774,297.400 376.636 C 297.950 376.498,298.400 376.208,298.400 375.992 C 298.400 375.777,298.760 375.600,299.200 375.600 C 299.644 375.600,300.000 375.333,300.000 375.000 C 300.000 374.625,300.379 374.400,301.013 374.400 C 301.569 374.400,302.124 374.141,302.246 373.824 C 302.367 373.508,302.992 373.134,303.633 372.993 C 304.275 372.852,304.800 372.571,304.800 372.368 C 304.800 372.166,305.070 372.000,305.400 372.000 C 305.730 372.000,306.000 371.730,306.000 371.400 C 306.000 371.025,306.379 370.800,307.013 370.800 C 307.569 370.800,308.129 370.530,308.255 370.200 C 308.382 369.870,308.717 369.600,309.000 369.600 C 309.283 369.600,309.618 369.330,309.745 369.000 C 309.871 368.670,310.332 368.400,310.768 368.400 C 311.204 368.400,311.704 368.175,311.880 367.900 C 312.239 367.339,313.355 366.591,314.700 366.009 C 315.195 365.795,315.600 365.435,315.600 365.210 C 315.600 364.984,315.870 364.800,316.200 364.800 C 316.530 364.800,316.800 364.530,316.800 364.200 C 316.800 363.870,317.147 363.600,317.571 363.600 C 317.996 363.600,318.613 363.330,318.943 363.000 C 319.273 362.670,319.736 362.400,319.971 362.400 C 320.207 362.400,320.400 362.130,320.400 361.800 C 320.400 361.470,320.670 361.200,321.000 361.200 C 321.330 361.200,321.600 360.930,321.600 360.600 C 321.600 360.270,321.954 360.000,322.386 360.000 C 322.819 360.000,323.725 359.460,324.400 358.800 C 325.075 358.140,325.801 357.600,326.014 357.600 C 326.226 357.600,326.400 357.330,326.400 357.000 C 326.400 356.670,326.651 356.400,326.957 356.400 C 327.264 356.400,327.618 356.130,327.745 355.800 C 327.871 355.470,328.249 355.200,328.585 355.200 C 328.921 355.200,330.017 354.390,331.021 353.400 C 332.025 352.410,333.016 351.600,333.224 351.600 C 333.431 351.600,333.600 351.330,333.600 351.000 C 333.600 350.670,333.870 350.400,334.200 350.400 C 334.530 350.400,334.800 350.130,334.800 349.800 C 334.800 349.470,335.070 349.200,335.400 349.200 C 335.730 349.200,336.000 348.930,336.000 348.600 C 336.000 348.270,336.180 348.000,336.400 348.000 C 336.918 348.000,337.452 347.515,342.484 342.484 C 347.515 337.452,348.000 336.918,348.000 336.400 C 348.000 336.180,348.270 336.000,348.600 336.000 C 348.930 336.000,349.200 335.730,349.200 335.400 C 349.200 335.070,349.470 334.800,349.800 334.800 C 350.130 334.800,350.400 334.530,350.400 334.200 C 350.400 333.870,350.670 333.600,351.000 333.600 C 351.330 333.600,351.600 333.431,351.600 333.224 C 351.600 333.016,352.410 332.025,353.400 331.021 C 354.390 330.017,355.200 328.921,355.200 328.585 C 355.200 328.249,355.470 327.871,355.800 327.745 C 356.130 327.618,356.400 327.264,356.400 326.957 C 356.400 326.651,356.670 326.400,357.000 326.400 C 357.330 326.400,357.600 326.226,357.600 326.014 C 357.600 325.801,358.140 325.075,358.800 324.400 C 359.460 323.725,360.000 322.819,360.000 322.386 C 360.000 321.954,360.270 321.600,360.600 321.600 C 360.930 321.600,361.200 321.330,361.200 321.000 C 361.200 320.670,361.470 320.400,361.800 320.400 C 362.130 320.400,362.400 320.207,362.400 319.971 C 362.400 319.736,362.670 319.273,363.000 318.943 C 363.330 318.613,363.600 317.996,363.600 317.571 C 363.600 317.147,363.870 316.800,364.200 316.800 C 364.530 316.800,364.800 316.549,364.800 316.243 C 364.800 315.936,365.070 315.582,365.400 315.455 C 365.730 315.329,366.000 314.854,366.000 314.400 C 366.000 313.946,366.270 313.471,366.600 313.345 C 366.930 313.218,367.200 312.883,367.200 312.600 C 367.200 312.317,367.470 311.982,367.800 311.855 C 368.130 311.729,368.400 311.254,368.400 310.800 C 368.400 310.346,368.670 309.871,369.000 309.745 C 369.330 309.618,369.600 309.283,369.600 309.000 C 369.600 308.717,369.870 308.382,370.200 308.255 C 370.530 308.129,370.800 307.569,370.800 307.013 C 370.800 306.379,371.025 306.000,371.400 306.000 C 371.730 306.000,372.000 305.730,372.000 305.400 C 372.000 305.070,372.166 304.800,372.368 304.800 C 372.571 304.800,372.852 304.275,372.993 303.633 C 373.134 302.992,373.508 302.367,373.824 302.246 C 374.141 302.124,374.400 301.569,374.400 301.013 C 374.400 300.379,374.625 300.000,375.000 300.000 C 375.330 300.000,375.600 299.662,375.600 299.249 C 375.600 298.836,375.870 298.274,376.200 298.000 C 376.530 297.726,376.800 297.254,376.800 296.951 C 376.800 296.648,376.966 296.400,377.168 296.400 C 377.371 296.400,377.655 295.860,377.800 295.200 C 377.945 294.540,378.215 294.000,378.400 294.000 C 378.585 294.000,378.855 293.460,379.000 292.800 C 379.145 292.140,379.426 291.600,379.624 291.600 C 379.822 291.600,380.109 291.107,380.260 290.504 C 380.411 289.901,380.775 289.168,381.067 288.875 C 381.360 288.582,381.600 287.996,381.600 287.571 C 381.600 287.147,381.780 286.800,382.000 286.800 C 382.220 286.800,382.400 286.572,382.400 286.294 C 382.400 286.016,382.760 285.116,383.200 284.296 C 383.640 283.475,384.000 282.437,384.000 281.989 C 384.000 281.541,384.270 281.071,384.600 280.945 C 384.935 280.816,385.200 280.222,385.200 279.600 C 385.200 278.978,385.465 278.384,385.800 278.255 C 386.130 278.129,386.400 277.584,386.400 277.046 C 386.400 276.507,386.584 276.005,386.809 275.930 C 387.035 275.855,387.332 275.075,387.470 274.197 C 387.608 273.319,387.964 272.456,388.261 272.280 C 388.557 272.104,388.800 271.361,388.800 270.629 C 388.800 269.897,389.070 269.074,389.400 268.800 C 389.730 268.526,390.006 267.919,390.013 267.451 C 390.020 266.983,390.290 266.251,390.613 265.824 C 390.936 265.396,391.200 264.529,391.200 263.895 C 391.200 263.261,391.470 262.473,391.800 262.143 C 392.148 261.795,392.400 260.817,392.400 259.814 C 392.400 258.647,392.595 258.011,393.000 257.855 C 393.393 257.704,393.600 257.081,393.600 256.046 C 393.600 255.177,393.803 254.399,394.051 254.316 C 394.299 254.234,394.595 253.189,394.710 251.995 C 394.825 250.801,395.162 249.581,395.459 249.284 C 395.765 248.978,396.000 247.900,396.000 246.805 C 396.000 245.661,396.195 244.802,396.476 244.708 C 396.760 244.613,397.023 243.425,397.126 241.775 C 397.221 240.249,397.500 238.873,397.746 238.717 C 397.994 238.560,398.259 236.962,398.343 235.127 C 398.453 232.694,398.661 231.697,399.129 231.355 C 400.420 230.411,400.297 169.955,399.001 168.659 C 398.700 168.357,398.430 166.802,398.342 164.857 C 398.259 163.034,397.993 161.440,397.746 161.283 C 397.500 161.127,397.221 159.751,397.126 158.225 C 397.023 156.575,396.760 155.387,396.476 155.292 C 396.195 155.198,396.000 154.339,396.000 153.195 C 396.000 152.100,395.765 151.022,395.459 150.716 C 395.162 150.419,394.825 149.199,394.710 148.005 C 394.595 146.811,394.299 145.766,394.051 145.684 C 393.803 145.601,393.600 144.837,393.600 143.987 C 393.600 143.107,393.366 142.302,393.057 142.120 C 392.758 141.944,392.415 140.906,392.296 139.813 C 392.176 138.720,391.881 137.760,391.639 137.680 C 391.398 137.599,391.200 136.953,391.200 136.243 C 391.200 135.534,390.936 134.604,390.613 134.176 C 390.290 133.749,390.020 133.017,390.013 132.549 C 390.006 132.081,389.730 131.474,389.400 131.200 C 389.070 130.926,388.800 130.103,388.800 129.371 C 388.800 128.639,388.557 127.896,388.261 127.720 C 387.964 127.544,387.608 126.681,387.470 125.803 C 387.332 124.925,387.035 124.145,386.809 124.070 C 386.584 123.995,386.400 123.493,386.400 122.954 C 386.400 122.416,386.130 121.871,385.800 121.745 C 385.470 121.618,385.200 121.106,385.200 120.606 C 385.200 120.107,384.930 119.474,384.600 119.200 C 384.270 118.926,384.000 118.363,384.000 117.950 C 384.000 117.536,383.640 116.525,383.200 115.704 C 382.760 114.884,382.400 113.984,382.400 113.706 C 382.400 113.428,382.220 113.200,382.000 113.200 C 381.780 113.200,381.600 112.853,381.600 112.429 C 381.600 112.004,381.360 111.418,381.067 111.125 C 380.775 110.832,380.411 110.099,380.260 109.496 C 380.109 108.893,379.822 108.400,379.624 108.400 C 379.426 108.400,379.145 107.860,379.000 107.200 C 378.855 106.540,378.585 106.000,378.400 106.000 C 378.215 106.000,377.945 105.460,377.800 104.800 C 377.655 104.140,377.371 103.600,377.168 103.600 C 376.966 103.600,376.800 103.352,376.800 103.049 C 376.800 102.746,376.530 102.274,376.200 102.000 C 375.870 101.726,375.600 101.164,375.600 100.751 C 375.600 100.338,375.330 100.000,375.000 100.000 C 374.625 100.000,374.400 99.621,374.400 98.987 C 374.400 98.431,374.141 97.876,373.824 97.754 C 373.508 97.633,373.134 97.008,372.993 96.367 C 372.852 95.725,372.571 95.200,372.368 95.200 C 372.166 95.200,372.000 94.930,372.000 94.600 C 372.000 94.270,371.730 94.000,371.400 94.000 C 371.025 94.000,370.800 93.621,370.800 92.987 C 370.800 92.431,370.530 91.871,370.200 91.745 C 369.870 91.618,369.600 91.283,369.600 91.000 C 369.600 90.717,369.330 90.382,369.000 90.255 C 368.670 90.129,368.400 89.654,368.400 89.200 C 368.400 88.746,368.130 88.271,367.800 88.145 C 367.470 88.018,367.200 87.683,367.200 87.400 C 367.200 87.117,366.930 86.782,366.600 86.655 C 366.270 86.529,366.000 86.054,366.000 85.600 C 366.000 85.146,365.730 84.671,365.400 84.545 C 365.070 84.418,364.800 84.064,364.800 83.757 C 364.800 83.451,364.530 83.200,364.200 83.200 C 363.870 83.200,363.600 82.846,363.600 82.414 C 363.600 81.981,363.060 81.075,362.400 80.400 C 361.740 79.725,361.200 78.999,361.200 78.786 C 361.200 78.574,360.930 78.400,360.600 78.400 C 360.270 78.400,360.000 78.046,360.000 77.614 C 360.000 77.181,359.460 76.275,358.800 75.600 C 358.140 74.925,357.600 74.199,357.600 73.986 C 357.600 73.774,357.330 73.600,357.000 73.600 C 356.670 73.600,356.400 73.349,356.400 73.043 C 356.400 72.736,356.130 72.382,355.800 72.255 C 355.470 72.129,355.200 71.751,355.200 71.415 C 355.200 71.079,354.390 69.983,353.400 68.979 C 352.410 67.975,351.600 66.984,351.600 66.776 C 351.600 66.569,351.330 66.400,351.000 66.400 C 350.670 66.400,350.400 66.130,350.400 65.800 C 350.400 65.470,350.130 65.200,349.800 65.200 C 349.470 65.200,349.200 64.930,349.200 64.600 C 349.200 64.270,348.930 64.000,348.600 64.000 C 348.270 64.000,348.000 63.820,348.000 63.600 C 348.000 63.082,347.515 62.548,342.484 57.516 C 337.452 52.485,336.918 52.000,336.400 52.000 C 336.180 52.000,336.000 51.730,336.000 51.400 C 336.000 51.070,335.730 50.800,335.400 50.800 C 335.070 50.800,334.800 50.530,334.800 50.200 C 334.800 49.870,334.530 49.600,334.200 49.600 C 333.870 49.600,333.600 49.330,333.600 49.000 C 333.600 48.670,333.431 48.400,333.224 48.400 C 333.016 48.400,332.025 47.590,331.021 46.600 C 330.017 45.610,328.921 44.800,328.585 44.800 C 328.249 44.800,327.871 44.530,327.745 44.200 C 327.618 43.870,327.264 43.600,326.957 43.600 C 326.651 43.600,326.400 43.330,326.400 43.000 C 326.400 42.670,326.226 42.400,326.014 42.400 C 325.801 42.400,325.075 41.860,324.400 41.200 C 323.725 40.540,322.819 40.000,322.386 40.000 C 321.954 40.000,321.600 39.730,321.600 39.400 C 321.600 39.070,321.426 38.800,321.214 38.800 C 321.001 38.800,320.275 38.260,319.600 37.600 C 318.925 36.940,318.019 36.400,317.586 36.400 C 317.154 36.400,316.800 36.130,316.800 35.800 C 316.800 35.470,316.549 35.200,316.243 35.200 C 315.936 35.200,315.582 34.930,315.455 34.600 C 315.329 34.270,314.854 34.000,314.400 34.000 C 313.946 34.000,313.471 33.730,313.345 33.400 C 313.218 33.070,312.883 32.800,312.600 32.800 C 312.317 32.800,311.982 32.530,311.855 32.200 C 311.729 31.870,311.254 31.600,310.800 31.600 C 310.346 31.600,309.871 31.330,309.745 31.000 C 309.618 30.670,309.283 30.400,309.000 30.400 C 308.717 30.400,308.382 30.130,308.255 29.800 C 308.129 29.470,307.569 29.200,307.013 29.200 C 306.379 29.200,306.000 28.975,306.000 28.600 C 306.000 28.270,305.730 28.000,305.400 28.000 C 305.070 28.000,304.800 27.834,304.800 27.632 C 304.800 27.429,304.275 27.148,303.633 27.007 C 302.992 26.866,302.367 26.492,302.246 26.176 C 302.124 25.859,301.569 25.600,301.013 25.600 C 300.456 25.600,300.000 25.430,300.000 25.222 C 300.000 24.849,298.461 23.862,297.100 23.363 C 296.715 23.222,296.400 22.962,296.400 22.785 C 296.400 22.608,295.860 22.345,295.200 22.200 C 294.540 22.055,294.000 21.785,294.000 21.600 C 294.000 21.415,293.460 21.145,292.800 21.000 C 292.140 20.855,291.600 20.574,291.600 20.376 C 291.600 20.178,291.107 19.891,290.504 19.740 C 289.901 19.589,289.168 19.225,288.875 18.933 C 288.582 18.640,287.996 18.400,287.571 18.400 C 287.147 18.400,286.800 18.220,286.800 18.000 C 286.800 17.780,286.572 17.600,286.294 17.600 C 286.016 17.600,285.116 17.240,284.296 16.800 C 283.475 16.360,282.464 16.000,282.050 16.000 C 281.637 16.000,281.074 15.730,280.800 15.400 C 280.526 15.070,279.951 14.800,279.522 14.800 C 279.094 14.800,278.473 14.530,278.143 14.200 C 277.813 13.870,277.196 13.600,276.771 13.600 C 276.347 13.600,276.000 13.436,276.000 13.235 C 276.000 13.034,275.245 12.743,274.323 12.587 C 273.401 12.431,272.398 12.055,272.095 11.752 C 271.791 11.448,271.038 11.200,270.420 11.200 C 269.803 11.200,269.074 10.930,268.800 10.600 C 268.526 10.270,267.985 10.000,267.597 10.000 C 267.209 10.000,266.376 9.731,265.746 9.402 C 265.116 9.074,264.120 8.804,263.533 8.802 C 262.947 8.801,262.407 8.622,262.333 8.405 C 262.260 8.189,261.300 7.891,260.200 7.744 C 259.100 7.597,258.091 7.311,257.958 7.108 C 257.824 6.905,256.969 6.639,256.058 6.517 C 255.146 6.395,254.400 6.147,254.400 5.967 C 254.400 5.787,253.320 5.518,252.000 5.368 C 250.680 5.219,249.600 4.949,249.600 4.768 C 249.600 4.588,248.520 4.318,247.200 4.168 C 245.880 4.019,244.800 3.766,244.800 3.606 C 244.800 3.446,243.503 3.194,241.917 3.047 C 240.332 2.900,238.937 2.627,238.817 2.441 C 238.698 2.256,237.025 1.974,235.100 1.816 C 233.175 1.658,231.600 1.364,231.600 1.164 C 231.600 0.964,229.710 0.800,227.400 0.800 C 224.867 0.800,223.200 0.641,223.200 0.400 C 223.200 0.138,215.200 0.000,200.000 0.000 C 184.800 0.000,176.800 0.138,176.800 0.400 M274.800 85.000 C 274.800 85.444,275.267 85.600,276.600 85.600 C 277.933 85.600,278.400 85.756,278.400 86.200 C 278.400 86.595,278.795 86.800,279.557 86.800 C 280.217 86.800,280.813 87.058,280.945 87.400 C 281.071 87.730,281.631 88.000,282.187 88.000 C 282.821 88.000,283.200 88.225,283.200 88.600 C 283.200 89.000,283.600 89.200,284.400 89.200 C 285.200 89.200,285.600 89.400,285.600 89.800 C 285.600 90.130,285.870 90.400,286.200 90.400 C 286.530 90.400,286.800 90.670,286.800 91.000 C 286.800 91.330,287.070 91.600,287.400 91.600 C 287.730 91.600,288.000 91.870,288.000 92.200 C 288.000 92.530,288.270 92.800,288.600 92.800 C 288.930 92.800,289.200 93.070,289.200 93.400 C 289.200 93.730,289.470 94.000,289.800 94.000 C 290.130 94.000,290.400 94.270,290.400 94.600 C 290.400 94.930,290.650 95.200,290.957 95.200 C 291.263 95.200,291.626 95.650,291.764 96.200 C 291.902 96.750,292.192 97.200,292.408 97.200 C 292.623 97.200,292.800 97.560,292.800 98.000 C 292.800 98.741,293.067 98.800,296.400 98.800 C 299.333 98.800,300.000 98.689,300.000 98.200 C 300.000 97.750,300.480 97.600,301.920 97.600 C 302.976 97.600,304.056 97.384,304.320 97.120 C 304.693 96.747,304.800 96.749,304.800 97.133 C 304.800 97.403,304.530 97.729,304.200 97.855 C 303.870 97.982,303.600 98.516,303.600 99.043 C 303.600 99.627,303.366 100.000,303.000 100.000 C 302.670 100.000,302.400 100.270,302.400 100.600 C 302.400 100.930,302.130 101.200,301.800 101.200 C 301.470 101.200,301.200 101.470,301.200 101.800 C 301.200 102.130,300.930 102.400,300.600 102.400 C 300.270 102.400,300.000 102.651,300.000 102.957 C 300.000 103.264,299.730 103.618,299.400 103.745 C 299.070 103.871,298.800 104.431,298.800 104.987 C 298.800 105.621,298.575 106.000,298.200 106.000 C 297.870 106.000,297.600 106.270,297.600 106.600 C 297.600 106.930,297.330 107.200,297.000 107.200 C 296.670 107.200,296.400 107.470,296.400 107.800 C 296.400 108.130,296.130 108.400,295.800 108.400 C 295.400 108.400,295.200 108.800,295.200 109.600 C 295.200 110.400,295.000 110.800,294.600 110.800 C 294.200 110.800,294.000 111.200,294.000 112.000 C 294.000 112.800,293.800 113.200,293.400 113.200 C 292.954 113.200,292.800 113.670,292.800 115.029 C 292.800 116.121,292.558 117.099,292.200 117.457 C 291.690 117.967,291.600 120.094,291.600 131.586 C 291.600 143.242,291.683 145.146,292.200 145.345 C 292.717 145.543,292.800 147.412,292.800 158.787 C 292.800 170.265,292.721 172.000,292.200 172.000 C 291.720 172.000,291.600 172.600,291.600 175.000 C 291.600 177.400,291.480 178.000,291.000 178.000 C 290.533 178.000,290.400 178.533,290.400 180.400 C 290.400 182.267,290.267 182.800,289.800 182.800 C 289.356 182.800,289.200 183.267,289.200 184.600 C 289.200 185.933,289.044 186.400,288.600 186.400 C 288.156 186.400,288.000 186.867,288.000 188.200 C 288.000 189.533,287.844 190.000,287.400 190.000 C 287.000 190.000,286.800 190.400,286.800 191.200 C 286.800 192.000,286.600 192.400,286.200 192.400 C 285.805 192.400,285.600 192.795,285.600 193.557 C 285.600 194.217,285.342 194.813,285.000 194.945 C 284.670 195.071,284.400 195.631,284.400 196.187 C 284.400 196.821,284.175 197.200,283.800 197.200 C 283.400 197.200,283.200 197.600,283.200 198.400 C 283.200 199.200,283.000 199.600,282.600 199.600 C 282.200 199.600,282.000 200.000,282.000 200.800 C 282.000 201.600,281.800 202.000,281.400 202.000 C 281.070 202.000,280.800 202.270,280.800 202.600 C 280.800 202.930,280.530 203.200,280.200 203.200 C 279.841 203.200,279.600 203.569,279.600 204.119 C 279.600 204.649,279.100 205.453,278.417 206.019 C 277.766 206.558,277.226 207.225,277.217 207.500 C 277.208 207.775,276.930 208.000,276.600 208.000 C 276.270 208.000,276.000 208.270,276.000 208.600 C 276.000 208.930,275.730 209.200,275.400 209.200 C 275.070 209.200,274.800 209.398,274.800 209.640 C 274.800 210.052,271.009 214.000,270.613 214.000 C 270.513 214.000,269.597 214.810,268.579 215.800 C 267.560 216.790,266.473 217.600,266.163 217.600 C 265.853 217.600,265.600 217.780,265.600 218.000 C 265.600 218.220,265.324 218.400,264.987 218.400 C 264.651 218.400,264.271 218.670,264.145 219.000 C 264.018 219.330,263.691 219.600,263.417 219.600 C 263.144 219.600,262.175 220.140,261.263 220.800 C 260.352 221.460,259.357 222.000,259.052 222.000 C 258.747 222.000,258.274 222.270,258.000 222.600 C 257.726 222.930,257.108 223.200,256.627 223.200 C 256.146 223.200,255.404 223.464,254.976 223.787 C 254.549 224.110,253.817 224.380,253.349 224.387 C 252.881 224.394,252.274 224.670,252.000 225.000 C 251.700 225.361,250.825 225.600,249.800 225.600 C 248.775 225.600,247.900 225.839,247.600 226.200 C 247.245 226.627,246.307 226.800,244.338 226.800 C 242.251 226.800,241.519 226.947,241.345 227.400 C 241.143 227.925,237.927 228.000,215.745 228.000 C 193.563 228.000,190.346 228.075,190.145 228.600 C 189.965 229.068,189.171 229.200,186.545 229.200 C 183.918 229.200,183.124 229.332,182.945 229.800 C 182.779 230.231,182.104 230.400,180.545 230.400 C 178.985 230.400,178.310 230.569,178.145 231.000 C 177.988 231.407,177.350 231.600,176.157 231.600 C 174.862 231.600,174.400 231.758,174.400 232.200 C 174.400 232.634,173.954 232.800,172.787 232.800 C 171.723 232.800,171.097 233.004,170.945 233.400 C 170.816 233.735,170.222 234.000,169.600 234.000 C 168.978 234.000,168.384 234.265,168.255 234.600 C 168.129 234.930,167.591 235.200,167.062 235.200 C 166.532 235.200,165.874 235.470,165.600 235.800 C 165.326 236.130,164.764 236.400,164.351 236.400 C 163.938 236.400,163.600 236.670,163.600 237.000 C 163.600 237.400,163.200 237.600,162.400 237.600 C 161.709 237.600,161.198 237.812,161.196 238.100 C 161.194 238.375,160.384 238.955,159.396 239.390 C 158.408 239.824,157.600 240.409,157.600 240.690 C 157.600 240.970,157.330 241.200,157.000 241.200 C 156.670 241.200,156.400 241.470,156.400 241.800 C 156.400 242.130,156.130 242.400,155.800 242.400 C 155.470 242.400,155.200 242.670,155.200 243.000 C 155.200 243.330,155.033 243.600,154.828 243.600 C 154.342 243.600,143.200 254.742,143.200 255.228 C 143.200 255.433,142.930 255.600,142.600 255.600 C 142.270 255.600,142.000 255.870,142.000 256.200 C 142.000 256.530,141.730 256.800,141.400 256.800 C 141.070 256.800,140.800 257.070,140.800 257.400 C 140.800 257.730,140.530 258.000,140.200 258.000 C 139.870 258.000,139.600 258.270,139.600 258.600 C 139.600 258.930,139.330 259.200,139.000 259.200 C 138.670 259.200,138.400 259.470,138.400 259.800 C 138.400 260.130,138.130 260.400,137.800 260.400 C 137.470 260.400,137.200 260.670,137.200 261.000 C 137.200 261.330,136.930 261.600,136.600 261.600 C 136.270 261.600,136.000 261.870,136.000 262.200 C 136.000 262.530,135.730 262.800,135.400 262.800 C 135.070 262.800,134.800 263.070,134.800 263.400 C 134.800 263.730,134.530 264.000,134.200 264.000 C 133.870 264.000,133.600 264.270,133.600 264.600 C 133.600 264.930,133.330 265.200,133.000 265.200 C 132.670 265.200,132.400 265.470,132.400 265.800 C 132.400 266.130,132.130 266.400,131.800 266.400 C 131.470 266.400,131.200 266.670,131.200 267.000 C 131.200 267.330,130.930 267.600,130.600 267.600 C 130.270 267.600,130.000 267.870,130.000 268.200 C 130.000 268.530,129.730 268.800,129.400 268.800 C 129.070 268.800,128.800 269.070,128.800 269.400 C 128.800 269.730,128.530 270.000,128.200 270.000 C 127.870 270.000,127.600 270.270,127.600 270.600 C 127.600 270.930,127.330 271.200,127.000 271.200 C 126.670 271.200,126.400 271.470,126.400 271.800 C 126.400 272.130,126.130 272.400,125.800 272.400 C 125.470 272.400,125.200 272.670,125.200 273.000 C 125.200 273.330,124.930 273.600,124.600 273.600 C 124.270 273.600,124.000 273.870,124.000 274.200 C 124.000 274.530,123.730 274.800,123.400 274.800 C 123.070 274.800,122.800 275.070,122.800 275.400 C 122.800 275.730,122.530 276.000,122.200 276.000 C 121.870 276.000,121.600 276.270,121.600 276.600 C 121.600 276.930,121.330 277.200,121.000 277.200 C 120.670 277.200,120.400 277.470,120.400 277.800 C 120.400 278.130,120.130 278.400,119.800 278.400 C 119.470 278.400,119.200 278.670,119.200 279.000 C 119.200 279.330,118.930 279.600,118.600 279.600 C 118.270 279.600,118.000 279.870,118.000 280.200 C 118.000 280.530,117.730 280.800,117.400 280.800 C 117.070 280.800,116.800 281.070,116.800 281.400 C 116.800 281.730,116.530 282.000,116.200 282.000 C 115.870 282.000,115.600 282.270,115.600 282.600 C 115.600 282.930,115.330 283.200,115.000 283.200 C 114.670 283.200,114.400 283.470,114.400 283.800 C 114.400 284.130,114.130 284.400,113.800 284.400 C 113.470 284.400,113.200 284.670,113.200 285.000 C 113.200 285.330,112.930 285.600,112.600 285.600 C 112.270 285.600,112.000 285.870,112.000 286.200 C 112.000 286.530,111.730 286.800,111.400 286.800 C 111.070 286.800,110.800 287.070,110.800 287.400 C 110.800 287.730,110.530 288.000,110.200 288.000 C 109.870 288.000,109.600 288.270,109.600 288.600 C 109.600 288.930,109.330 289.200,109.000 289.200 C 108.670 289.200,108.400 289.470,108.400 289.800 C 108.400 290.130,108.130 290.400,107.800 290.400 C 107.470 290.400,107.200 290.670,107.200 291.000 C 107.200 291.330,106.930 291.600,106.600 291.600 C 106.270 291.600,106.000 291.870,106.000 292.200 C 106.000 292.530,105.730 292.800,105.400 292.800 C 105.070 292.800,104.800 293.070,104.800 293.400 C 104.800 293.730,104.530 294.000,104.200 294.000 C 103.870 294.000,103.600 294.270,103.600 294.600 C 103.600 294.930,103.330 295.200,103.000 295.200 C 102.670 295.200,102.400 295.470,102.400 295.800 C 102.400 296.130,102.130 296.400,101.800 296.400 C 101.470 296.400,101.200 296.670,101.200 297.000 C 101.200 297.330,100.930 297.600,100.600 297.600 C 100.270 297.600,100.000 297.870,100.000 298.200 C 100.000 298.530,99.730 298.800,99.400 298.800 C 99.070 298.800,98.800 299.070,98.800 299.400 C 98.800 299.730,98.530 300.000,98.200 300.000 C 97.870 300.000,97.600 300.270,97.600 300.600 C 97.600 300.930,97.330 301.200,97.000 301.200 C 96.670 301.200,96.400 301.470,96.400 301.800 C 96.400 302.130,96.130 302.400,95.800 302.400 C 95.470 302.400,95.200 302.670,95.200 303.000 C 95.200 303.330,94.930 303.600,94.600 303.600 C 94.270 303.600,94.000 303.870,94.000 304.200 C 94.000 304.530,93.730 304.800,93.400 304.800 C 93.070 304.800,92.800 305.070,92.800 305.400 C 92.800 305.730,92.530 306.000,92.200 306.000 C 91.870 306.000,91.600 306.270,91.600 306.600 C 91.600 306.930,91.330 307.200,91.000 307.200 C 90.670 307.200,90.400 307.470,90.400 307.800 C 90.400 308.130,90.130 308.400,89.800 308.400 C 89.470 308.400,89.200 308.670,89.200 309.000 C 89.200 309.330,88.930 309.600,88.600 309.600 C 88.270 309.600,88.000 309.870,88.000 310.200 C 88.000 310.530,87.730 310.800,87.400 310.800 C 87.070 310.800,86.800 311.070,86.800 311.400 C 86.800 311.730,86.620 312.000,86.400 312.000 C 86.180 312.000,85.653 312.315,85.229 312.700 C 83.420 314.341,82.000 315.084,82.000 314.387 C 82.000 314.174,82.177 314.000,82.392 314.000 C 82.608 314.000,82.898 313.550,83.036 313.000 C 83.174 312.450,83.537 312.000,83.843 312.000 C 84.150 312.000,84.400 311.730,84.400 311.400 C 84.400 311.070,84.670 310.800,85.000 310.800 C 85.330 310.800,85.600 310.530,85.600 310.200 C 85.600 309.870,85.870 309.600,86.200 309.600 C 86.530 309.600,86.800 309.324,86.800 308.987 C 86.800 308.651,87.070 308.271,87.400 308.145 C 87.730 308.018,88.000 307.484,88.000 306.957 C 88.000 306.373,88.234 306.000,88.600 306.000 C 88.930 306.000,89.200 305.730,89.200 305.400 C 89.200 305.070,89.470 304.800,89.800 304.800 C 90.130 304.800,90.400 304.530,90.400 304.200 C 90.400 303.870,90.670 303.600,91.000 303.600 C 91.330 303.600,91.600 303.349,91.600 303.043 C 91.600 302.736,91.870 302.382,92.200 302.255 C 92.530 302.129,92.800 301.654,92.800 301.200 C 92.800 300.746,93.070 300.271,93.400 300.145 C 93.730 300.018,94.000 299.664,94.000 299.357 C 94.000 299.051,94.270 298.800,94.600 298.800 C 94.930 298.800,95.200 298.530,95.200 298.200 C 95.200 297.870,95.470 297.600,95.800 297.600 C 96.130 297.600,96.400 297.349,96.400 297.043 C 96.400 296.736,96.670 296.382,97.000 296.255 C 97.330 296.129,97.600 295.749,97.600 295.413 C 97.600 295.076,97.777 294.800,97.992 294.800 C 98.208 294.800,98.498 294.350,98.636 293.800 C 98.774 293.250,99.137 292.800,99.443 292.800 C 99.750 292.800,100.000 292.530,100.000 292.200 C 100.000 291.870,100.270 291.600,100.600 291.600 C 100.930 291.600,101.200 291.330,101.200 291.000 C 101.200 290.670,101.470 290.400,101.800 290.400 C 102.130 290.400,102.400 290.152,102.400 289.849 C 102.400 289.546,102.670 289.074,103.000 288.800 C 103.330 288.526,103.600 287.964,103.600 287.551 C 103.600 287.138,103.870 286.800,104.200 286.800 C 104.530 286.800,104.800 286.530,104.800 286.200 C 104.800 285.870,105.070 285.600,105.400 285.600 C 105.730 285.600,106.000 285.330,106.000 285.000 C 106.000 284.670,106.270 284.400,106.600 284.400 C 106.930 284.400,107.200 284.149,107.200 283.843 C 107.200 283.536,107.470 283.182,107.800 283.055 C 108.130 282.929,108.400 282.369,108.400 281.813 C 108.400 281.179,108.625 280.800,109.000 280.800 C 109.330 280.800,109.600 280.530,109.600 280.200 C 109.600 279.870,109.870 279.600,110.200 279.600 C 110.530 279.600,110.800 279.330,110.800 279.000 C 110.800 278.670,111.070 278.400,111.400 278.400 C 111.730 278.400,112.000 278.149,112.000 277.843 C 112.000 277.536,112.270 277.182,112.600 277.055 C 112.930 276.929,113.200 276.454,113.200 276.000 C 113.200 275.546,113.470 275.071,113.800 274.945 C 114.130 274.818,114.400 274.464,114.400 274.157 C 114.400 273.851,114.670 273.600,115.000 273.600 C 115.330 273.600,115.600 273.330,115.600 273.000 C 115.600 272.670,115.870 272.400,116.200 272.400 C 116.530 272.400,116.800 272.130,116.800 271.800 C 116.800 271.470,117.030 271.200,117.310 271.200 C 117.591 271.200,118.176 270.392,118.610 269.404 C 119.045 268.416,119.625 267.606,119.900 267.604 C 120.175 267.602,120.400 267.330,120.400 267.000 C 120.400 266.670,120.670 266.400,121.000 266.400 C 121.330 266.400,121.600 266.130,121.600 265.800 C 121.600 265.470,121.870 265.200,122.200 265.200 C 122.530 265.200,122.800 265.007,122.800 264.771 C 122.800 264.536,123.070 264.073,123.400 263.743 C 123.730 263.413,124.000 262.796,124.000 262.371 C 124.000 261.947,124.270 261.600,124.600 261.600 C 124.930 261.600,125.200 261.330,125.200 261.000 C 125.200 260.670,125.470 260.400,125.800 260.400 C 126.130 260.400,126.400 260.130,126.400 259.800 C 126.400 259.470,126.670 259.200,127.000 259.200 C 127.330 259.200,127.600 258.949,127.600 258.643 C 127.600 258.336,127.870 257.982,128.200 257.855 C 128.530 257.729,128.800 257.254,128.800 256.800 C 128.800 256.346,129.070 255.871,129.400 255.745 C 129.730 255.618,130.000 255.264,130.000 254.957 C 130.000 254.651,130.270 254.400,130.600 254.400 C 130.930 254.400,131.200 254.130,131.200 253.800 C 131.200 253.470,131.470 253.200,131.800 253.200 C 132.130 253.200,132.400 253.029,132.400 252.821 C 132.400 252.612,132.854 251.951,133.410 251.352 C 133.965 250.753,134.524 249.843,134.653 249.331 C 134.782 248.819,135.137 248.400,135.443 248.400 C 135.750 248.400,136.000 248.130,136.000 247.800 C 136.000 247.470,136.270 247.200,136.600 247.200 C 136.930 247.200,137.200 246.930,137.200 246.600 C 137.200 246.270,137.470 246.000,137.800 246.000 C 138.130 246.000,138.400 245.730,138.400 245.400 C 138.400 245.070,138.566 244.800,138.768 244.800 C 138.971 244.800,139.255 244.260,139.400 243.600 C 139.545 242.940,139.919 242.400,140.232 242.400 C 140.544 242.400,140.800 242.130,140.800 241.800 C 140.800 241.470,141.070 241.200,141.400 241.200 C 141.730 241.200,142.000 240.930,142.000 240.600 C 142.000 240.270,142.270 240.000,142.600 240.000 C 142.930 240.000,143.200 239.749,143.200 239.443 C 143.200 239.136,143.470 238.782,143.800 238.655 C 144.130 238.529,144.400 237.969,144.400 237.413 C 144.400 236.779,144.625 236.400,145.000 236.400 C 145.330 236.400,145.600 236.130,145.600 235.800 C 145.600 235.470,145.870 235.200,146.200 235.200 C 146.530 235.200,146.800 234.930,146.800 234.600 C 146.800 234.270,147.070 234.000,147.400 234.000 C 147.730 234.000,148.000 233.749,148.000 233.443 C 148.000 233.136,148.270 232.782,148.600 232.655 C 148.930 232.529,149.200 232.054,149.200 231.600 C 149.200 231.146,149.470 230.671,149.800 230.545 C 150.130 230.418,150.400 230.064,150.400 229.757 C 150.400 229.451,150.670 229.200,151.000 229.200 C 151.330 229.200,151.600 228.930,151.600 228.600 C 151.600 228.270,151.870 228.000,152.200 228.000 C 152.530 228.000,152.800 227.829,152.800 227.621 C 152.800 227.412,153.254 226.751,153.810 226.152 C 154.365 225.553,154.924 224.643,155.053 224.131 C 155.182 223.619,155.537 223.200,155.843 223.200 C 156.150 223.200,156.400 222.930,156.400 222.600 C 156.400 222.270,156.670 222.000,157.000 222.000 C 157.330 222.000,157.600 221.730,157.600 221.400 C 157.600 221.070,157.870 220.800,158.200 220.800 C 158.530 220.800,158.800 220.530,158.800 220.200 C 158.800 219.870,158.966 219.600,159.168 219.600 C 159.371 219.600,159.655 219.060,159.800 218.400 C 159.945 217.740,160.319 217.200,160.632 217.200 C 160.944 217.200,161.200 216.930,161.200 216.600 C 161.200 216.270,161.470 216.000,161.800 216.000 C 162.130 216.000,162.400 215.730,162.400 215.400 C 162.400 215.070,162.670 214.800,163.000 214.800 C 163.330 214.800,163.600 214.530,163.600 214.200 C 163.600 213.870,163.762 213.600,163.961 213.600 C 164.159 213.600,164.510 213.060,164.740 212.400 C 164.970 211.740,165.348 211.200,165.579 211.200 C 165.811 211.200,166.000 210.930,166.000 210.600 C 166.000 210.270,166.270 210.000,166.600 210.000 C 166.930 210.000,167.200 209.730,167.200 209.400 C 167.200 209.070,167.470 208.800,167.800 208.800 C 168.130 208.800,168.400 208.629,168.400 208.421 C 168.400 208.212,168.854 207.551,169.410 206.952 C 169.965 206.353,170.524 205.443,170.653 204.931 C 170.782 204.419,171.137 204.000,171.443 204.000 C 171.750 204.000,172.000 203.730,172.000 203.400 C 172.000 203.070,172.270 202.800,172.600 202.800 C 172.930 202.800,173.200 202.611,173.200 202.381 C 173.200 202.150,173.650 201.545,174.200 201.035 C 174.750 200.525,175.200 199.926,175.200 199.702 C 175.200 199.479,175.875 198.590,176.700 197.727 C 178.680 195.656,180.400 193.521,180.400 193.136 C 180.400 192.966,180.985 192.225,181.700 191.489 C 183.319 189.823,184.399 188.512,185.291 187.128 C 185.671 186.539,186.616 185.441,187.391 184.688 C 188.166 183.935,188.800 183.178,188.800 183.005 C 188.800 182.833,189.250 182.275,189.800 181.765 C 190.350 181.255,190.800 180.671,190.800 180.467 C 190.800 180.263,191.475 179.390,192.300 178.527 C 194.261 176.476,196.000 174.323,196.000 173.946 C 196.000 173.782,196.765 172.839,197.700 171.851 C 200.108 169.307,200.400 168.913,200.400 168.204 C 200.400 167.858,200.670 167.471,201.000 167.345 C 201.330 167.218,201.600 166.864,201.600 166.557 C 201.600 166.251,201.870 166.000,202.200 166.000 C 202.530 166.000,202.800 165.730,202.800 165.400 C 202.800 165.070,203.070 164.800,203.400 164.800 C 203.730 164.800,204.000 164.549,204.000 164.243 C 204.000 163.936,204.270 163.582,204.600 163.455 C 204.930 163.329,205.200 162.969,205.200 162.655 C 205.200 162.342,205.470 161.982,205.800 161.855 C 206.130 161.729,206.400 161.259,206.400 160.813 C 206.400 160.357,206.664 160.000,207.000 160.000 C 207.330 160.000,207.600 159.730,207.600 159.400 C 207.600 159.070,207.870 158.800,208.200 158.800 C 208.530 158.800,208.800 158.530,208.800 158.200 C 208.800 157.870,209.070 157.600,209.400 157.600 C 209.733 157.600,210.000 157.244,210.000 156.800 C 210.000 156.356,210.267 156.000,210.600 156.000 C 210.973 156.000,211.200 155.622,211.200 155.000 C 211.200 154.378,211.427 154.000,211.800 154.000 C 212.130 154.000,212.400 153.730,212.400 153.400 C 212.400 153.070,212.670 152.800,213.000 152.800 C 213.330 152.800,213.600 152.530,213.600 152.200 C 213.600 151.870,213.870 151.600,214.200 151.600 C 214.530 151.600,214.800 151.349,214.800 151.043 C 214.800 150.736,215.070 150.382,215.400 150.255 C 215.730 150.129,216.000 149.654,216.000 149.200 C 216.000 148.746,216.270 148.271,216.600 148.145 C 216.930 148.018,217.200 147.664,217.200 147.357 C 217.200 147.051,217.470 146.800,217.800 146.800 C 218.130 146.800,218.400 146.530,218.400 146.200 C 218.400 145.870,218.670 145.600,219.000 145.600 C 219.330 145.600,219.600 145.349,219.600 145.043 C 219.600 144.736,219.870 144.382,220.200 144.255 C 220.530 144.129,220.800 143.769,220.800 143.455 C 220.800 143.142,221.070 142.782,221.400 142.655 C 221.730 142.529,222.000 142.059,222.000 141.613 C 222.000 141.157,222.264 140.800,222.600 140.800 C 222.930 140.800,223.200 140.530,223.200 140.200 C 223.200 139.870,223.470 139.600,223.800 139.600 C 224.130 139.600,224.400 139.330,224.400 139.000 C 224.400 138.670,224.670 138.400,225.000 138.400 C 225.330 138.400,225.600 138.124,225.600 137.787 C 225.600 137.451,225.870 137.071,226.200 136.945 C 226.530 136.818,226.800 136.284,226.800 135.757 C 226.800 135.173,227.034 134.800,227.400 134.800 C 227.730 134.800,228.000 134.530,228.000 134.200 C 228.000 133.870,228.270 133.600,228.600 133.600 C 228.930 133.600,229.200 133.330,229.200 133.000 C 229.200 132.670,229.470 132.400,229.800 132.400 C 230.130 132.400,230.400 132.149,230.400 131.843 C 230.400 131.536,230.670 131.182,231.000 131.055 C 231.330 130.929,231.600 130.369,231.600 129.813 C 231.600 129.179,231.825 128.800,232.200 128.800 C 232.530 128.800,232.800 128.530,232.800 128.200 C 232.800 127.870,233.070 127.600,233.400 127.600 C 233.730 127.600,234.000 127.330,234.000 127.000 C 234.000 126.670,234.270 126.400,234.600 126.400 C 234.930 126.400,235.200 126.149,235.200 125.843 C 235.200 125.536,235.470 125.182,235.800 125.055 C 236.130 124.929,236.400 124.454,236.400 124.000 C 236.400 123.546,236.670 123.071,237.000 122.945 C 237.330 122.818,237.600 122.464,237.600 122.157 C 237.600 121.851,237.870 121.600,238.200 121.600 C 238.530 121.600,238.800 121.330,238.800 121.000 C 238.800 120.670,239.070 120.400,239.400 120.400 C 239.730 120.400,240.000 120.130,240.000 119.800 C 240.000 119.470,240.270 119.200,240.600 119.200 C 241.107 119.200,241.200 118.267,241.200 113.200 C 241.200 108.133,241.293 107.200,241.800 107.200 C 242.267 107.200,242.400 106.667,242.400 104.800 C 242.400 102.933,242.533 102.400,243.000 102.400 C 243.400 102.400,243.600 102.000,243.600 101.200 C 243.600 100.400,243.800 100.000,244.200 100.000 C 244.600 100.000,244.800 99.600,244.800 98.800 C 244.800 98.000,245.000 97.600,245.400 97.600 C 245.775 97.600,246.000 97.221,246.000 96.587 C 246.000 96.031,246.270 95.471,246.600 95.345 C 246.930 95.218,247.200 94.864,247.200 94.557 C 247.200 94.251,247.470 94.000,247.800 94.000 C 248.130 94.000,248.400 93.730,248.400 93.400 C 248.400 93.070,248.670 92.800,249.000 92.800 C 249.330 92.800,249.600 92.530,249.600 92.200 C 249.600 91.870,249.870 91.600,250.200 91.600 C 250.530 91.600,250.800 91.330,250.800 91.000 C 250.800 90.670,251.070 90.400,251.400 90.400 C 251.730 90.400,252.000 90.130,252.000 89.800 C 252.000 89.400,252.400 89.200,253.200 89.200 C 254.000 89.200,254.400 89.000,254.400 88.600 C 254.400 88.225,254.779 88.000,255.413 88.000 C 255.969 88.000,256.529 87.730,256.655 87.400 C 256.787 87.058,257.383 86.800,258.043 86.800 C 258.805 86.800,259.200 86.595,259.200 86.200 C 259.200 85.756,259.667 85.600,261.000 85.600 C 262.333 85.600,262.800 85.444,262.800 85.000 C 262.800 84.493,263.733 84.400,268.800 84.400 C 273.867 84.400,274.800 84.493,274.800 85.000 M265.455 99.400 C 265.329 99.730,264.949 100.000,264.613 100.000 C 264.276 100.000,264.000 100.270,264.000 100.600 C 264.000 100.930,263.730 101.200,263.400 101.200 C 263.070 101.200,262.800 101.470,262.800 101.800 C 262.800 102.130,262.530 102.400,262.200 102.400 C 261.800 102.400,261.600 102.800,261.600 103.600 C 261.600 104.400,261.400 104.800,261.000 104.800 C 260.520 104.800,260.400 105.400,260.400 107.800 C 260.400 110.200,260.520 110.800,261.000 110.800 C 261.400 110.800,261.600 111.200,261.600 112.000 C 261.600 112.800,261.800 113.200,262.200 113.200 C 262.530 113.200,262.800 113.380,262.800 113.600 C 262.800 114.096,264.271 115.600,264.757 115.600 C 264.954 115.600,265.218 115.870,265.345 116.200 C 265.954 117.789,275.957 116.568,275.990 114.900 C 275.996 114.625,276.270 114.400,276.600 114.400 C 276.930 114.400,277.200 114.149,277.200 113.843 C 277.200 113.536,277.470 113.182,277.800 113.055 C 278.289 112.868,278.400 111.898,278.400 107.800 C 278.400 103.702,278.289 102.732,277.800 102.545 C 277.470 102.418,277.200 102.064,277.200 101.757 C 277.200 101.451,276.930 101.200,276.600 101.200 C 276.270 101.200,276.000 100.930,276.000 100.600 C 276.000 100.200,275.600 100.000,274.800 100.000 C 274.000 100.000,273.600 99.800,273.600 99.400 C 273.600 98.907,272.894 98.800,269.643 98.800 C 266.494 98.800,265.639 98.923,265.455 99.400 M307.200 247.800 L 307.200 254.400 258.000 254.400 L 208.800 254.400 208.800 247.800 L 208.800 241.200 258.000 241.200 L 307.200 241.200 307.200 247.800 " stroke="none" fill="#04b4ac" fill-rule="evenodd"></path><path id="path1" d="" stroke="none" fill="#08b4ac" fill-rule="evenodd"></path><path id="path2" d="" stroke="none" fill="#08b4ac" fill-rule="evenodd"></path><path id="path3" d="" stroke="none" fill="#08b4ac" fill-rule="evenodd"></path><path id="path4" d="" stroke="none" fill="#08b4ac" fill-rule="evenodd"></path></g></svg>