<svg id="svg" version="1.1" xmlns="http://www.w3.org/2000/svg" xmlns:xlink="http://www.w3.org/1999/xlink" width="400" height="400" viewBox="0, 0, 400,400"><g id="svgg"><path id="path0" d="M137.102 109.895 C 137.010 140.310,136.936 143.801,136.373 143.910 C 136.028 143.976,134.138 143.292,132.173 142.389 C 130.208 141.486,128.060 140.508,127.400 140.216 C 126.740 139.924,125.300 139.285,124.200 138.797 C 114.304 134.404,115.533 134.946,107.600 131.482 C 102.914 129.436,101.086 128.629,96.900 126.759 C 92.534 124.809,91.708 124.444,90.400 123.884 C 89.630 123.554,88.145 122.905,87.100 122.442 C 84.078 121.103,81.943 120.155,79.900 119.246 C 75.473 117.276,74.301 116.757,72.500 115.971 C 70.327 115.023,68.988 114.434,66.300 113.242 C 65.255 112.779,63.545 112.023,62.500 111.562 C 61.455 111.101,60.077 110.471,59.439 110.162 C 58.800 109.853,58.215 109.600,58.139 109.600 C 58.062 109.600,58.000 115.155,58.000 121.945 L 58.000 134.291 60.500 135.405 C 61.875 136.017,63.900 136.922,65.000 137.414 C 66.100 137.907,67.810 138.670,68.800 139.110 C 69.790 139.549,71.455 140.289,72.500 140.754 C 74.919 141.831,77.536 142.994,79.700 143.954 C 80.635 144.369,82.300 145.110,83.400 145.600 C 85.756 146.650,87.917 147.607,90.400 148.703 C 91.390 149.140,93.730 150.173,95.600 151.000 C 100.344 153.097,102.378 153.989,104.000 154.684 C 104.770 155.013,106.165 155.624,107.100 156.042 C 108.035 156.459,109.610 157.160,110.600 157.600 C 111.590 158.040,113.210 158.760,114.200 159.200 C 115.190 159.640,116.765 160.341,117.700 160.758 C 118.635 161.176,120.030 161.787,120.800 162.117 C 121.570 162.447,123.370 163.255,124.800 163.912 C 126.230 164.570,129.380 165.961,131.800 167.005 C 134.220 168.048,136.422 169.078,136.692 169.293 C 137.078 169.600,137.208 184.857,137.292 239.743 C 137.382 298.202,137.491 309.999,137.951 311.000 C 139.664 314.734,140.269 315.743,141.903 317.589 C 144.665 320.708,147.083 321.940,155.360 324.449 C 161.478 326.303,169.038 322.889,174.933 315.611 C 176.274 313.955,177.473 312.510,177.598 312.400 C 177.723 312.290,180.509 308.960,183.790 305.000 C 187.070 301.040,190.079 297.509,190.477 297.153 C 190.875 296.797,191.202 296.347,191.204 296.153 C 191.206 295.959,192.061 294.896,193.104 293.792 C 194.147 292.688,195.492 291.128,196.094 290.327 C 196.696 289.525,197.416 288.627,197.694 288.332 C 197.972 288.036,199.096 286.716,200.191 285.397 C 201.286 284.079,202.276 282.910,202.391 282.800 C 202.506 282.690,203.283 281.749,204.119 280.710 C 204.954 279.670,205.861 278.590,206.135 278.310 C 206.409 278.029,206.895 277.420,207.216 276.956 C 207.537 276.493,208.520 275.297,209.400 274.299 C 210.280 273.302,211.340 272.074,211.757 271.572 C 212.173 271.070,213.590 269.386,214.907 267.829 C 216.224 266.273,218.199 263.920,219.296 262.600 C 220.393 261.280,221.675 259.748,222.145 259.196 C 222.615 258.644,223.808 257.204,224.795 255.996 C 225.781 254.788,226.688 253.710,226.808 253.600 C 226.929 253.490,232.947 246.290,240.183 237.600 C 255.785 218.861,253.565 220.851,257.100 222.437 C 258.035 222.857,259.610 223.560,260.600 224.000 C 261.590 224.440,263.165 225.141,264.100 225.558 C 265.035 225.976,266.520 226.625,267.400 227.001 C 268.280 227.378,269.900 228.096,271.000 228.596 C 274.349 230.120,276.469 231.060,286.933 235.663 C 292.470 238.098,297.900 240.498,299.000 240.995 C 302.795 242.711,305.005 243.695,306.400 244.290 C 307.170 244.618,308.790 245.336,310.000 245.885 C 311.210 246.434,312.560 247.040,313.000 247.231 C 324.243 252.112,340.029 259.116,340.895 259.606 C 341.277 259.823,341.682 260.000,341.795 260.000 C 341.908 260.000,342.000 254.440,342.000 247.644 L 342.000 235.288 340.100 234.394 C 339.055 233.903,336.130 232.603,333.600 231.506 C 331.070 230.409,328.190 229.152,327.200 228.713 C 326.210 228.275,324.770 227.643,324.000 227.310 C 323.230 226.977,321.700 226.295,320.600 225.795 C 319.500 225.295,317.880 224.574,317.000 224.193 C 316.120 223.812,313.912 222.803,312.093 221.950 C 310.273 221.098,308.704 220.400,308.604 220.400 C 308.505 220.400,307.473 219.969,306.312 219.443 C 305.150 218.917,301.050 217.097,297.200 215.399 C 293.350 213.701,289.480 211.993,288.600 211.602 C 287.720 211.211,286.100 210.494,285.000 210.008 C 283.900 209.522,282.010 208.672,280.800 208.119 C 277.851 206.772,275.728 205.824,273.800 204.994 C 270.384 203.523,269.600 203.094,269.600 202.698 C 269.600 202.315,272.603 198.558,273.994 197.200 C 274.332 196.870,275.114 195.921,275.732 195.091 C 276.349 194.261,277.247 193.180,277.727 192.688 C 278.207 192.197,279.092 191.136,279.694 190.332 C 280.296 189.527,281.016 188.627,281.294 188.332 C 281.572 188.036,282.696 186.716,283.791 185.397 C 284.886 184.079,285.887 182.910,286.014 182.800 C 286.142 182.690,286.526 182.191,286.867 181.691 C 287.208 181.192,288.104 180.112,288.858 179.291 C 289.612 178.471,290.493 177.420,290.815 176.956 C 291.137 176.491,292.340 175.051,293.490 173.756 C 294.639 172.460,296.686 170.050,298.039 168.400 C 299.392 166.750,300.971 164.857,301.549 164.194 C 302.127 163.530,303.283 162.140,304.119 161.104 C 304.954 160.068,305.854 158.986,306.119 158.700 C 310.577 153.888,311.381 152.326,309.709 151.728 C 309.319 151.589,307.497 150.783,305.660 149.938 C 303.823 149.092,302.239 148.400,302.138 148.400 C 302.038 148.400,301.201 148.060,300.278 147.646 C 299.355 147.231,297.700 146.490,296.600 146.001 C 295.500 145.511,293.650 144.681,292.488 144.155 C 289.833 142.954,289.568 142.962,288.595 144.265 C 287.657 145.522,284.327 149.536,279.200 155.593 C 278.870 155.982,277.880 157.165,277.000 158.222 C 276.120 159.278,275.219 160.335,274.998 160.571 C 274.777 160.807,273.787 161.988,272.798 163.196 C 271.809 164.404,270.616 165.844,270.147 166.396 C 268.917 167.844,259.484 179.166,253.481 186.400 C 247.566 193.528,247.579 193.515,246.326 192.932 C 245.370 192.487,242.937 191.394,239.800 190.000 C 238.810 189.560,237.190 188.840,236.200 188.400 C 235.210 187.960,233.635 187.259,232.700 186.842 C 231.765 186.424,230.370 185.813,229.600 185.484 C 228.004 184.800,225.120 183.525,222.200 182.210 C 221.100 181.715,218.850 180.724,217.200 180.008 C 215.550 179.292,213.390 178.347,212.400 177.907 C 211.410 177.468,209.790 176.752,208.800 176.317 C 207.810 175.881,206.100 175.113,205.000 174.610 C 203.900 174.107,202.370 173.423,201.600 173.090 C 199.210 172.056,193.529 169.532,190.400 168.113 C 188.483 167.244,178.020 162.648,174.000 160.910 C 173.230 160.577,171.700 159.895,170.600 159.395 C 169.500 158.895,167.970 158.215,167.200 157.884 C 161.828 155.572,160.037 154.586,159.832 153.824 C 159.711 153.371,159.608 137.775,159.605 119.168 L 159.600 85.335 157.100 84.209 C 155.725 83.590,152.170 82.022,149.200 80.724 C 142.813 77.933,141.388 77.299,139.839 76.556 C 136.963 75.179,137.216 72.091,137.102 109.895 M161.105 179.966 C 161.487 180.168,162.430 180.602,163.200 180.932 C 164.942 181.678,179.002 187.895,184.700 190.441 C 185.635 190.858,187.210 191.560,188.200 192.000 C 189.190 192.440,190.765 193.141,191.700 193.558 C 192.635 193.976,194.030 194.587,194.800 194.916 C 195.570 195.246,197.100 195.915,198.200 196.403 C 201.640 197.930,203.756 198.865,205.000 199.408 C 207.183 200.360,213.770 203.267,215.600 204.086 C 216.590 204.529,218.165 205.231,219.100 205.646 C 220.035 206.060,221.565 206.740,222.500 207.154 C 223.435 207.569,225.100 208.307,226.200 208.793 C 227.300 209.279,228.723 209.929,229.361 210.238 C 230.000 210.547,230.771 210.800,231.074 210.800 C 232.726 210.800,230.038 215.255,226.005 219.200 C 225.667 219.530,224.886 220.479,224.268 221.309 C 223.651 222.139,222.753 223.220,222.273 223.712 C 221.793 224.203,220.908 225.264,220.306 226.068 C 219.704 226.873,218.984 227.771,218.706 228.065 C 218.428 228.359,216.409 230.760,214.220 233.400 C 212.031 236.040,209.959 238.470,209.616 238.800 C 209.272 239.130,208.501 240.059,207.902 240.865 C 207.302 241.671,206.584 242.571,206.304 242.865 C 206.025 243.159,204.987 244.388,203.998 245.596 C 201.888 248.174,201.106 249.100,198.750 251.820 C 197.788 252.931,196.399 254.587,195.664 255.501 C 194.929 256.414,193.968 257.575,193.529 258.081 C 192.258 259.544,190.128 262.094,183.570 270.000 C 180.195 274.070,177.327 277.490,177.198 277.600 C 177.069 277.710,173.303 282.210,168.829 287.600 C 164.355 292.990,160.493 297.400,160.247 297.400 C 159.783 297.400,159.341 182.394,159.798 180.500 C 160.042 179.488,160.130 179.452,161.105 179.966 " stroke="none" fill="#f9f9f9" fill-rule="evenodd"></path><path id="path1" d="M0.000 200.000 L 0.000 400.000 200.000 400.000 L 400.000 400.000 400.000 200.000 L 400.000 0.000 200.000 0.000 L 0.000 0.000 0.000 200.000 M138.200 75.200 C 138.336 75.420,138.797 75.600,139.224 75.600 C 139.651 75.600,140.000 75.780,140.000 76.000 C 140.000 76.220,140.272 76.400,140.605 76.400 C 140.938 76.400,141.523 76.565,141.905 76.766 C 142.652 77.159,143.675 77.616,153.200 81.809 C 156.610 83.310,159.625 84.709,159.900 84.918 C 160.293 85.217,160.400 92.658,160.400 119.751 L 160.400 154.205 161.700 154.737 C 162.415 155.029,163.765 155.613,164.700 156.034 C 165.635 156.455,167.210 157.160,168.200 157.600 C 169.190 158.040,170.810 158.760,171.800 159.200 C 172.790 159.640,174.365 160.342,175.300 160.759 C 176.235 161.177,177.900 161.920,179.000 162.412 C 180.100 162.903,184.060 164.639,187.800 166.269 C 191.540 167.900,195.320 169.568,196.200 169.976 C 197.080 170.383,198.520 171.025,199.400 171.401 C 201.806 172.431,205.210 173.983,206.938 174.839 C 207.784 175.257,208.729 175.600,209.038 175.600 C 209.347 175.600,209.600 175.780,209.600 176.000 C 209.600 176.220,209.874 176.400,210.209 176.400 C 210.543 176.400,212.361 177.120,214.248 178.000 C 216.135 178.880,217.753 179.600,217.843 179.600 C 217.933 179.600,221.471 181.151,225.704 183.046 C 235.561 187.459,236.707 187.968,238.400 188.690 C 240.561 189.610,244.037 191.197,245.732 192.035 C 247.500 192.911,247.028 193.237,250.996 188.400 C 252.530 186.530,253.879 184.910,253.993 184.800 C 254.108 184.690,255.551 182.984,257.201 181.008 C 258.850 179.033,260.584 176.963,261.053 176.408 C 261.523 175.854,264.127 172.700,266.840 169.400 C 269.554 166.100,271.870 163.310,271.987 163.200 C 272.212 162.988,275.807 158.755,276.911 157.400 C 277.729 156.396,286.515 145.852,287.993 144.100 C 289.123 142.761,290.511 142.430,291.905 143.167 C 292.659 143.566,293.090 143.758,303.800 148.471 C 313.339 152.669,313.142 151.814,306.308 159.400 C 305.911 159.840,303.299 162.990,300.503 166.400 C 297.707 169.810,295.134 172.870,294.787 173.200 C 294.440 173.530,293.883 174.199,293.549 174.686 C 293.216 175.174,292.199 176.434,291.288 177.486 C 290.377 178.539,288.519 180.750,287.159 182.400 C 285.798 184.050,284.126 186.036,283.443 186.814 C 282.759 187.592,281.570 189.015,280.800 189.976 C 280.030 190.938,278.950 192.209,278.400 192.803 C 277.850 193.396,276.950 194.475,276.400 195.200 C 275.850 195.925,274.950 197.013,274.400 197.617 C 272.922 199.240,270.619 202.073,270.470 202.452 C 270.349 202.759,271.214 203.203,276.600 205.601 C 283.309 208.587,285.542 209.574,287.200 210.284 C 287.970 210.613,289.365 211.224,290.300 211.642 C 291.235 212.059,292.765 212.741,293.700 213.158 C 294.635 213.576,296.030 214.187,296.800 214.516 C 298.521 215.253,301.393 216.537,304.710 218.053 C 306.091 218.684,307.300 219.200,307.398 219.200 C 307.570 219.200,309.761 220.164,314.400 222.281 C 315.610 222.834,317.410 223.648,318.400 224.090 C 319.390 224.533,320.892 225.233,321.738 225.647 C 322.584 226.061,323.529 226.400,323.838 226.400 C 324.147 226.400,324.400 226.580,324.400 226.800 C 324.400 227.020,324.672 227.200,325.005 227.200 C 325.338 227.200,325.923 227.367,326.305 227.571 C 326.687 227.775,328.100 228.425,329.444 229.015 C 330.788 229.606,334.208 231.110,337.044 232.359 L 342.200 234.628 342.306 247.514 C 342.419 261.322,342.455 261.068,340.495 260.034 C 340.113 259.832,339.170 259.401,338.400 259.076 C 337.105 258.529,336.115 258.093,331.200 255.909 C 325.662 253.447,324.003 252.720,320.458 251.198 C 318.840 250.503,316.140 249.311,314.458 248.550 C 312.776 247.790,311.040 247.017,310.600 246.834 C 310.160 246.651,308.945 246.119,307.900 245.651 C 306.855 245.183,305.190 244.440,304.200 244.000 C 303.210 243.560,301.590 242.840,300.600 242.400 C 299.610 241.960,298.035 241.259,297.100 240.842 C 296.165 240.424,294.770 239.813,294.000 239.484 C 292.694 238.925,291.886 238.569,286.900 236.357 C 285.855 235.894,283.862 234.994,282.472 234.357 C 281.082 233.721,279.872 233.200,279.784 233.200 C 279.696 233.200,278.673 232.770,277.512 232.245 C 276.350 231.719,274.545 230.909,273.500 230.445 C 268.956 228.425,267.894 227.953,266.100 227.162 C 265.055 226.701,263.677 226.071,263.039 225.762 C 262.400 225.453,261.635 225.200,261.339 225.200 C 261.042 225.200,260.800 225.020,260.800 224.800 C 260.800 224.580,260.440 224.400,260.000 224.400 C 259.560 224.400,259.200 224.220,259.200 224.000 C 259.200 223.780,258.845 223.600,258.412 223.600 C 257.979 223.600,256.965 223.230,256.160 222.777 C 254.182 221.667,254.330 221.557,248.749 228.273 C 246.040 231.533,243.726 234.290,243.606 234.400 C 243.487 234.510,242.581 235.588,241.595 236.796 C 240.608 238.004,239.418 239.444,238.952 239.996 C 238.486 240.548,235.713 243.880,232.790 247.400 C 229.867 250.920,226.918 254.434,226.238 255.209 C 225.557 255.984,224.341 257.424,223.537 258.409 C 219.224 263.686,212.062 272.270,208.563 276.356 C 207.883 277.150,207.037 278.160,206.683 278.600 C 205.126 280.537,201.010 285.506,200.051 286.606 C 199.473 287.270,198.295 288.686,197.434 289.754 C 196.573 290.822,195.493 292.080,195.034 292.550 C 194.575 293.021,193.693 294.083,193.073 294.912 C 192.453 295.740,191.508 296.856,190.973 297.391 C 190.438 297.926,190.000 298.470,190.000 298.600 C 190.000 298.730,189.580 299.257,189.066 299.771 C 188.552 300.284,187.427 301.581,186.566 302.652 C 185.705 303.723,184.820 304.795,184.600 305.034 C 184.380 305.273,183.599 306.209,182.864 307.115 C 182.129 308.020,181.229 309.108,180.864 309.531 C 180.499 309.955,179.542 311.089,178.738 312.051 C 177.934 313.013,176.878 314.250,176.393 314.800 C 175.907 315.350,175.036 316.430,174.457 317.200 C 171.977 320.500,166.511 324.400,164.367 324.400 C 163.971 324.400,163.536 324.580,163.400 324.800 C 163.091 325.300,155.046 325.334,154.095 324.839 C 153.713 324.640,152.590 324.261,151.600 323.996 C 146.122 322.529,140.824 318.417,138.646 313.942 C 136.319 309.159,136.430 312.924,136.414 238.368 L 136.400 169.735 133.900 168.620 C 132.525 168.007,130.140 166.964,128.600 166.302 C 127.060 165.640,124.900 164.690,123.800 164.192 C 122.700 163.694,121.080 162.978,120.200 162.601 C 117.684 161.525,115.134 160.371,113.462 159.553 C 112.616 159.139,111.671 158.800,111.362 158.800 C 111.053 158.800,110.800 158.620,110.800 158.400 C 110.800 158.180,110.528 158.000,110.195 158.000 C 109.862 158.000,109.277 157.836,108.895 157.635 C 108.259 157.300,106.008 156.270,102.400 154.662 C 101.630 154.319,96.320 151.982,90.600 149.470 C 80.255 144.926,78.018 143.933,74.200 142.196 C 73.100 141.696,71.480 140.974,70.600 140.593 C 69.720 140.212,67.886 139.383,66.525 138.750 C 65.164 138.118,63.965 137.600,63.861 137.600 C 63.757 137.600,62.305 136.960,60.636 136.178 L 57.600 134.757 57.600 121.978 L 57.600 109.200 58.600 109.200 C 59.150 109.200,59.600 109.380,59.600 109.600 C 59.600 109.820,59.872 110.000,60.205 110.000 C 60.538 110.000,61.123 110.179,61.505 110.397 C 61.887 110.616,66.915 112.860,72.677 115.384 C 78.439 117.909,83.974 120.340,84.977 120.787 C 85.980 121.234,87.610 121.960,88.600 122.400 C 92.602 124.179,94.292 124.936,96.200 125.804 C 97.300 126.304,98.920 127.022,99.800 127.399 C 100.680 127.775,102.120 128.402,103.000 128.791 C 103.880 129.181,106.040 130.137,107.800 130.916 C 109.560 131.695,112.350 132.909,114.000 133.614 C 115.650 134.318,118.080 135.391,119.400 135.998 C 120.720 136.604,122.520 137.412,123.400 137.793 C 124.280 138.174,125.900 138.895,127.000 139.395 C 128.100 139.895,129.630 140.577,130.400 140.909 C 131.170 141.242,132.790 141.960,134.000 142.505 L 136.200 143.495 136.299 109.647 C 136.354 91.031,136.483 75.575,136.587 75.300 C 136.812 74.702,137.852 74.637,138.200 75.200 M160.400 238.677 L 160.400 296.910 161.635 295.356 C 162.315 294.501,163.553 292.991,164.386 292.001 C 166.667 289.291,171.587 283.386,181.717 271.200 C 186.745 265.150,191.656 259.337,192.630 258.282 C 193.603 257.226,194.400 256.285,194.400 256.190 C 194.400 255.992,204.276 244.116,205.202 243.200 C 205.536 242.870,206.314 241.921,206.932 241.091 C 207.549 240.261,208.447 239.180,208.927 238.688 C 209.407 238.197,210.292 237.136,210.894 236.332 C 211.496 235.527,212.216 234.627,212.494 234.332 C 212.772 234.036,213.898 232.716,214.996 231.397 C 216.093 230.079,217.173 228.805,217.396 228.566 C 217.618 228.327,218.430 227.354,219.200 226.404 C 219.970 225.454,221.050 224.191,221.600 223.597 C 222.150 223.004,223.050 221.925,223.600 221.200 C 224.150 220.475,225.050 219.386,225.600 218.781 C 226.150 218.175,226.870 217.344,227.200 216.934 C 227.530 216.523,228.578 215.250,229.529 214.103 C 231.170 212.126,231.394 211.200,230.233 211.200 C 229.946 211.200,228.652 210.682,227.356 210.050 C 225.157 208.976,224.285 208.576,219.300 206.353 C 218.255 205.887,216.708 205.167,215.862 204.753 C 215.016 204.339,214.177 204.000,213.998 204.000 C 213.818 204.000,212.350 203.391,210.736 202.648 C 209.121 201.904,205.071 200.105,201.735 198.650 C 198.399 197.196,194.259 195.367,192.535 194.586 C 190.811 193.806,189.040 193.017,188.600 192.834 C 188.160 192.651,186.945 192.119,185.900 191.651 C 184.855 191.183,183.190 190.440,182.200 190.000 C 177.492 187.908,176.493 187.453,175.062 186.753 C 174.216 186.339,173.377 186.000,173.198 186.000 C 173.018 186.000,171.460 185.357,169.736 184.572 C 165.656 182.714,165.411 182.604,162.700 181.436 L 160.400 180.444 160.400 238.677 " stroke="none" fill="#040404" fill-rule="evenodd"></path><path id="path2" d="M57.778 121.800 C 57.778 128.620,57.832 131.466,57.899 128.125 C 57.966 124.784,57.966 119.204,57.899 115.725 C 57.833 112.246,57.778 114.980,57.778 121.800 M342.178 247.600 C 342.178 254.530,342.233 257.365,342.299 253.900 C 342.366 250.435,342.366 244.765,342.299 241.300 C 342.233 237.835,342.178 240.670,342.178 247.600 M157.907 325.090 C 158.626 325.179,159.706 325.177,160.307 325.086 C 160.908 324.995,160.320 324.922,159.000 324.924 C 157.680 324.926,157.188 325.001,157.907 325.090 " stroke="none" fill="#7c7c7c" fill-rule="evenodd"></path><path id="path3" d="M136.584 75.300 C 136.479 75.575,136.441 91.100,136.499 109.800 L 136.605 143.800 136.702 109.473 L 136.800 75.146 137.650 75.416 C 138.222 75.597,138.411 75.541,138.226 75.243 C 137.857 74.645,136.820 74.681,136.584 75.300 M159.300 84.832 C 159.957 85.215,160.006 87.363,160.098 119.720 L 160.195 154.200 160.300 119.844 C 160.405 85.260,160.374 84.376,159.051 84.412 C 158.803 84.419,158.915 84.608,159.300 84.832 M82.000 119.800 C 82.550 120.114,83.180 120.372,83.400 120.372 C 83.620 120.372,83.350 120.114,82.800 119.800 C 82.250 119.486,81.620 119.228,81.400 119.228 C 81.180 119.228,81.450 119.486,82.000 119.800 M89.600 123.200 C 90.370 123.622,91.180 123.966,91.400 123.966 C 91.620 123.966,91.170 123.622,90.400 123.200 C 89.630 122.778,88.820 122.434,88.600 122.434 C 88.380 122.434,88.830 122.778,89.600 123.200 M113.200 133.600 C 113.970 134.022,114.780 134.366,115.000 134.366 C 115.220 134.366,114.770 134.022,114.000 133.600 C 113.230 133.178,112.420 132.834,112.200 132.834 C 111.980 132.834,112.430 133.178,113.200 133.600 M116.104 134.834 C 117.217 135.482,119.600 136.430,119.600 136.224 C 119.600 136.020,116.052 134.393,115.649 134.412 C 115.512 134.419,115.717 134.609,116.104 134.834 M123.654 138.187 C 123.990 138.523,126.800 139.616,126.800 139.411 C 126.800 139.301,126.148 138.938,125.351 138.605 C 123.875 137.989,123.318 137.851,123.654 138.187 M77.200 143.389 C 77.200 143.499,77.830 143.862,78.600 144.195 C 79.370 144.528,80.630 145.072,81.400 145.405 C 82.170 145.738,82.800 145.921,82.800 145.811 C 82.800 145.701,82.170 145.338,81.400 145.005 C 80.630 144.672,79.370 144.128,78.600 143.795 C 77.830 143.462,77.200 143.279,77.200 143.389 M286.287 146.061 C 285.235 147.348,284.456 148.400,284.556 148.400 C 284.848 148.400,288.530 143.994,288.357 143.852 C 288.271 143.781,287.339 144.775,286.287 146.061 M83.254 146.187 C 83.590 146.523,86.400 147.616,86.400 147.411 C 86.400 147.301,85.748 146.938,84.951 146.605 C 83.475 145.989,82.918 145.851,83.254 146.187 M86.854 147.787 C 87.190 148.123,90.000 149.216,90.000 149.011 C 90.000 148.901,89.348 148.538,88.551 148.205 C 87.075 147.589,86.518 147.451,86.854 147.787 M282.149 151.084 C 281.077 152.340,280.409 153.239,280.664 153.083 C 281.223 152.739,284.554 148.800,284.286 148.800 C 284.182 148.800,283.220 149.828,282.149 151.084 M279.155 154.700 C 277.881 156.108,277.056 157.200,277.266 157.200 C 277.357 157.200,278.108 156.390,278.935 155.400 C 280.587 153.424,280.735 152.953,279.155 154.700 M309.968 154.700 C 307.830 157.095,307.021 158.117,307.464 157.863 C 307.719 157.717,308.681 156.698,309.601 155.599 C 311.368 153.488,311.637 152.830,309.968 154.700 M274.975 159.700 L 273.800 161.000 275.100 159.825 C 275.815 159.179,276.400 158.594,276.400 158.525 C 276.400 158.216,276.070 158.488,274.975 159.700 M304.226 161.500 C 303.362 162.605,303.293 162.790,303.963 162.204 C 304.765 161.504,305.823 160.000,305.514 160.000 C 305.451 160.000,304.872 160.675,304.226 161.500 M269.887 165.661 C 268.835 166.948,268.056 168.000,268.156 168.000 C 268.448 168.000,272.130 163.594,271.957 163.452 C 271.871 163.381,270.939 164.375,269.887 165.661 M301.968 164.300 C 299.609 166.943,299.074 167.600,299.282 167.600 C 299.403 167.600,300.349 166.610,301.382 165.400 C 303.296 163.160,303.755 162.298,301.968 164.300 M123.200 163.783 C 123.200 164.024,125.663 165.200,126.161 165.198 C 126.403 165.196,126.150 164.962,125.600 164.676 C 124.272 163.987,123.200 163.588,123.200 163.783 M191.801 168.401 C 191.936 168.621,192.219 168.800,192.428 168.800 C 192.737 168.800,195.620 170.018,196.900 170.690 C 197.065 170.776,197.200 170.751,197.200 170.634 C 197.200 170.423,194.583 169.154,192.578 168.392 C 191.901 168.134,191.638 168.137,191.801 168.401 M296.974 170.210 C 295.936 171.425,295.157 172.478,295.243 172.548 C 295.329 172.619,296.261 171.625,297.313 170.339 C 299.740 167.372,299.482 167.274,296.974 170.210 M265.749 170.684 C 264.677 171.940,264.009 172.839,264.264 172.683 C 264.823 172.339,268.154 168.400,267.886 168.400 C 267.782 168.400,266.820 169.428,265.749 170.684 M136.596 238.600 C 136.596 276.660,136.643 292.171,136.700 273.068 C 136.757 253.966,136.757 222.826,136.700 203.868 C 136.643 184.911,136.596 200.540,136.596 238.600 M292.265 175.800 C 291.437 176.790,290.884 177.600,291.036 177.600 C 291.311 177.600,291.684 177.176,293.233 175.100 C 294.513 173.386,293.931 173.806,292.265 175.800 M259.234 178.553 L 258.269 179.800 259.413 178.712 C 260.043 178.114,260.477 177.553,260.379 177.465 C 260.280 177.377,259.765 177.867,259.234 178.553 M288.208 180.700 C 287.349 181.745,287.060 182.240,287.566 181.800 C 288.461 181.022,290.198 178.800,289.912 178.800 C 289.834 178.800,289.067 179.655,288.208 180.700 M160.226 180.308 C 159.882 180.651,159.956 296.726,160.300 296.938 C 160.465 297.040,160.554 270.870,160.497 238.783 L 160.395 180.442 162.647 181.438 C 163.886 181.986,164.967 182.366,165.051 182.283 C 165.134 182.200,164.133 181.671,162.826 181.107 C 161.520 180.543,160.350 180.184,160.226 180.308 M257.168 181.100 C 254.809 183.743,254.274 184.400,254.482 184.400 C 254.603 184.400,255.549 183.410,256.582 182.200 C 258.496 179.960,258.955 179.098,257.168 181.100 M165.600 182.631 C 165.600 182.901,167.678 183.656,167.876 183.457 C 167.967 183.367,167.492 183.101,166.820 182.867 C 166.149 182.633,165.600 182.527,165.600 182.631 M284.549 185.084 C 283.477 186.340,282.809 187.239,283.064 187.083 C 283.623 186.739,286.954 182.800,286.686 182.800 C 286.582 182.800,285.620 183.828,284.549 185.084 M171.200 185.200 C 171.970 185.622,172.780 185.966,173.000 185.966 C 173.220 185.966,172.770 185.622,172.000 185.200 C 171.230 184.778,170.420 184.434,170.200 184.434 C 169.980 184.434,170.430 184.778,171.200 185.200 M252.826 186.122 L 251.851 187.400 253.126 186.225 C 254.451 185.003,254.603 184.785,254.100 184.822 C 253.935 184.834,253.362 185.419,252.826 186.122 M281.500 188.614 C 280.501 189.950,280.631 190.323,281.646 189.033 C 282.111 188.442,282.426 187.895,282.346 187.818 C 282.266 187.741,281.885 188.100,281.500 188.614 M238.454 188.987 C 238.790 189.323,241.600 190.416,241.600 190.211 C 241.600 190.101,240.948 189.738,240.151 189.405 C 238.675 188.789,238.118 188.651,238.454 188.987 M194.800 195.600 C 195.570 196.022,196.380 196.366,196.600 196.366 C 196.820 196.366,196.370 196.022,195.600 195.600 C 194.830 195.178,194.020 194.834,193.800 194.834 C 193.580 194.834,194.030 195.178,194.800 195.600 M198.800 197.400 C 199.350 197.714,199.980 197.972,200.200 197.972 C 200.420 197.972,200.150 197.714,199.600 197.400 C 199.050 197.086,198.420 196.828,198.200 196.828 C 197.980 196.828,198.250 197.086,198.800 197.400 M202.400 199.000 C 202.950 199.314,203.580 199.572,203.800 199.572 C 204.020 199.572,203.750 199.314,203.200 199.000 C 202.650 198.686,202.020 198.428,201.800 198.428 C 201.580 198.428,201.850 198.686,202.400 199.000 M230.400 213.000 C 229.883 213.550,229.627 213.994,229.830 213.987 C 230.172 213.976,231.821 212.000,231.488 212.000 C 231.406 212.000,230.917 212.450,230.400 213.000 M307.254 219.387 C 307.590 219.723,310.400 220.816,310.400 220.611 C 310.400 220.501,309.748 220.138,308.951 219.805 C 307.475 219.189,306.918 219.051,307.254 219.387 M310.854 220.987 C 311.190 221.323,314.000 222.416,314.000 222.211 C 314.000 222.101,313.348 221.738,312.551 221.405 C 311.075 220.789,310.518 220.651,310.854 220.987 M253.800 221.910 C 253.580 222.073,252.952 222.745,252.404 223.403 C 251.510 224.477,251.561 224.458,252.904 223.222 C 254.259 221.973,254.591 221.588,254.300 221.606 C 254.245 221.609,254.020 221.746,253.800 221.910 M218.300 227.414 C 217.301 228.750,217.431 229.123,218.446 227.833 C 218.911 227.242,219.226 226.695,219.146 226.618 C 219.066 226.541,218.685 226.900,218.300 227.414 M247.349 229.484 C 246.277 230.740,245.609 231.639,245.864 231.483 C 246.423 231.139,249.754 227.200,249.486 227.200 C 249.382 227.200,248.420 228.228,247.349 229.484 M269.600 228.589 C 269.600 228.906,272.500 230.033,272.728 229.805 C 272.841 229.692,272.835 229.600,272.716 229.600 C 272.596 229.600,271.846 229.328,271.049 228.995 C 270.252 228.662,269.600 228.479,269.600 228.589 M215.829 230.362 L 214.658 231.800 216.009 230.513 C 216.751 229.805,217.278 229.158,217.179 229.075 C 217.081 228.992,216.473 229.571,215.829 230.362 M273.200 230.189 C 273.200 230.506,276.100 231.633,276.328 231.405 C 276.441 231.292,276.435 231.200,276.316 231.200 C 276.196 231.200,275.446 230.928,274.649 230.595 C 273.852 230.262,273.200 230.079,273.200 230.189 M277.000 231.909 C 277.220 232.113,278.210 232.591,279.200 232.970 C 280.190 233.350,280.820 233.495,280.600 233.291 C 280.380 233.087,279.390 232.609,278.400 232.230 C 277.410 231.850,276.780 231.705,277.000 231.909 M244.401 232.998 C 243.886 233.548,243.539 234.064,243.632 234.146 C 243.724 234.228,244.219 233.778,244.730 233.147 C 245.876 231.735,245.674 231.644,244.401 232.998 M207.634 240.153 L 206.669 241.400 207.813 240.312 C 208.443 239.714,208.877 239.153,208.779 239.065 C 208.680 238.977,208.165 239.467,207.634 240.153 M202.687 246.061 C 201.635 247.348,200.856 248.400,200.956 248.400 C 201.248 248.400,204.930 243.994,204.757 243.852 C 204.671 243.781,203.739 244.775,202.687 246.061 M233.600 246.000 C 232.456 247.320,231.611 248.400,231.721 248.400 C 231.831 248.400,232.856 247.320,234.000 246.000 C 235.144 244.680,235.989 243.600,235.879 243.600 C 235.769 243.600,234.744 244.680,233.600 246.000 M198.549 251.084 C 197.477 252.340,196.809 253.239,197.064 253.083 C 197.623 252.739,200.954 248.800,200.686 248.800 C 200.582 248.800,199.620 249.828,198.549 251.084 M228.215 252.500 C 226.518 254.535,225.885 255.390,226.809 254.400 C 229.037 252.014,231.722 248.800,231.488 248.800 C 231.385 248.800,229.912 250.465,228.215 252.500 M316.454 249.387 C 316.790 249.723,319.600 250.816,319.600 250.611 C 319.600 250.501,318.948 250.138,318.151 249.805 C 316.675 249.189,316.118 249.051,316.454 249.387 M320.800 251.366 C 321.350 251.660,322.250 252.012,322.800 252.149 C 323.350 252.286,323.080 252.052,322.200 251.629 C 320.390 250.758,319.268 250.548,320.800 251.366 M195.404 254.796 C 194.774 255.454,194.335 256.056,194.429 256.134 C 194.523 256.212,195.113 255.674,195.739 254.938 C 197.154 253.277,196.945 253.188,195.404 254.796 M190.481 260.622 C 188.255 263.443,188.565 263.429,190.982 260.600 C 192.016 259.390,192.713 258.410,192.531 258.422 C 192.349 258.435,191.426 259.425,190.481 260.622 M220.955 261.081 C 220.107 262.116,219.622 262.834,219.877 262.676 C 220.421 262.340,222.955 259.200,222.682 259.200 C 222.580 259.200,221.803 260.047,220.955 261.081 M218.368 264.300 C 216.009 266.943,215.474 267.600,215.682 267.600 C 215.803 267.600,216.749 266.610,217.782 265.400 C 219.696 263.160,220.155 262.298,218.368 264.300 M186.149 265.884 C 185.077 267.140,184.409 268.039,184.664 267.883 C 185.223 267.539,188.554 263.600,188.286 263.600 C 188.182 263.600,187.220 264.628,186.149 265.884 M182.149 270.684 C 181.077 271.940,180.409 272.839,180.664 272.683 C 181.223 272.339,184.554 268.400,184.286 268.400 C 184.182 268.400,183.220 269.428,182.149 270.684 M212.401 271.398 C 211.886 271.948,211.539 272.464,211.632 272.546 C 211.724 272.628,212.219 272.178,212.730 271.547 C 213.876 270.135,213.674 270.044,212.401 271.398 M208.608 275.900 C 207.749 276.945,207.460 277.440,207.966 277.000 C 208.861 276.222,210.598 274.000,210.312 274.000 C 210.234 274.000,209.467 274.855,208.608 275.900 M177.375 276.500 L 176.200 277.800 177.500 276.625 C 178.712 275.530,178.984 275.200,178.675 275.200 C 178.606 275.200,178.021 275.785,177.375 276.500 M204.608 280.700 C 203.749 281.745,203.460 282.240,203.966 281.800 C 204.861 281.022,206.598 278.800,206.312 278.800 C 206.234 278.800,205.467 279.655,204.608 280.700 M173.375 281.300 L 172.200 282.600 173.500 281.425 C 174.712 280.330,174.984 280.000,174.675 280.000 C 174.606 280.000,174.021 280.585,173.375 281.300 M171.155 283.900 C 169.098 286.176,166.218 289.757,166.667 289.481 C 167.156 289.180,172.523 282.800,172.286 282.800 C 172.211 282.800,171.702 283.295,171.155 283.900 M201.001 285.019 C 199.958 286.240,199.172 287.296,199.253 287.366 C 199.334 287.436,200.269 286.437,201.332 285.146 C 203.785 282.167,203.524 282.067,201.001 285.019 M196.868 289.900 C 195.916 291.093,195.196 292.123,195.268 292.187 C 195.341 292.251,196.190 291.330,197.155 290.140 C 198.120 288.950,198.840 287.921,198.755 287.853 C 198.670 287.785,197.821 288.706,196.868 289.900 M163.226 293.322 L 162.251 294.600 163.526 293.425 C 164.851 292.203,165.003 291.985,164.500 292.022 C 164.335 292.034,163.762 292.619,163.226 293.322 M191.800 296.000 C 191.168 296.660,190.819 297.190,191.025 297.178 C 191.378 297.157,193.439 294.800,193.105 294.800 C 193.020 294.800,192.432 295.340,191.800 296.000 M185.270 303.653 C 184.758 304.284,184.488 304.794,184.670 304.787 C 185.041 304.773,186.556 302.812,186.339 302.625 C 186.263 302.559,185.781 303.022,185.270 303.653 M181.270 308.453 C 180.758 309.084,180.488 309.594,180.670 309.587 C 181.041 309.573,182.556 307.612,182.339 307.425 C 182.263 307.359,181.781 307.822,181.270 308.453 M137.214 310.089 C 137.198 310.881,139.038 315.200,139.392 315.200 C 139.522 315.200,139.415 314.801,139.154 314.314 C 138.893 313.827,138.353 312.522,137.954 311.414 C 137.555 310.306,137.222 309.710,137.214 310.089 M178.231 312.143 C 177.224 313.322,176.400 314.416,176.400 314.574 C 176.400 314.732,176.892 314.263,177.494 313.531 C 178.095 312.799,178.680 312.110,178.794 312.000 C 179.501 311.314,180.487 310.000,180.293 310.000 C 180.166 310.000,179.238 310.964,178.231 312.143 M141.983 318.500 C 143.641 320.266,144.000 320.584,144.000 320.283 C 144.000 320.219,143.145 319.364,142.100 318.383 L 140.200 316.600 141.983 318.500 M172.975 318.451 C 172.329 319.139,170.929 320.399,169.864 321.251 C 168.799 322.103,168.062 322.800,168.226 322.800 C 168.860 322.800,172.653 319.552,173.949 317.900 C 174.841 316.762,174.243 317.100,172.975 318.451 M154.204 324.806 C 154.338 325.023,155.007 325.200,155.690 325.200 C 157.201 325.200,157.049 325.000,155.280 324.663 C 154.455 324.506,154.052 324.560,154.204 324.806 M162.000 324.800 L 161.000 325.120 162.076 325.160 C 162.668 325.182,163.264 325.020,163.400 324.800 C 163.681 324.345,163.420 324.345,162.000 324.800 " stroke="none" fill="#5a5a5a" fill-rule="evenodd"></path><path id="path4" d="M136.704 109.562 C 136.647 128.461,136.735 143.840,136.900 143.738 C 137.065 143.636,137.200 128.353,137.200 109.776 L 137.200 76.000 138.100 75.972 C 138.975 75.945,138.149 75.327,137.104 75.228 C 136.942 75.213,136.762 90.663,136.704 109.562 M159.791 119.400 C 159.791 138.320,159.840 146.001,159.900 136.470 C 159.960 126.938,159.960 111.458,159.900 102.070 C 159.840 92.681,159.791 100.480,159.791 119.400 M69.600 114.631 C 69.600 114.901,71.678 115.656,71.876 115.457 C 71.967 115.367,71.492 115.101,70.820 114.867 C 70.149 114.633,69.600 114.527,69.600 114.631 M102.800 129.400 C 103.350 129.714,103.980 129.972,104.200 129.972 C 104.420 129.972,104.150 129.714,103.600 129.400 C 103.050 129.086,102.420 128.828,102.200 128.828 C 101.980 128.828,102.250 129.086,102.800 129.400 M59.200 135.200 C 59.970 135.622,60.780 135.966,61.000 135.966 C 61.220 135.966,60.770 135.622,60.000 135.200 C 59.230 134.778,58.420 134.434,58.200 134.434 C 57.980 134.434,58.430 134.778,59.200 135.200 M62.104 136.434 C 63.217 137.082,65.600 138.030,65.600 137.824 C 65.600 137.620,62.052 135.993,61.649 136.012 C 61.512 136.019,61.717 136.209,62.104 136.434 M66.054 138.187 C 66.390 138.523,69.200 139.616,69.200 139.411 C 69.200 139.301,68.548 138.938,67.751 138.605 C 66.275 137.989,65.718 137.851,66.054 138.187 M134.000 143.200 C 134.770 143.622,135.580 143.966,135.800 143.966 C 136.020 143.966,135.570 143.622,134.800 143.200 C 134.030 142.778,133.220 142.434,133.000 142.434 C 132.780 142.434,133.230 142.778,134.000 143.200 M296.400 145.789 C 296.400 146.106,299.300 147.233,299.528 147.005 C 299.641 146.892,299.635 146.800,299.516 146.800 C 299.396 146.800,298.646 146.528,297.849 146.195 C 297.052 145.862,296.400 145.679,296.400 145.789 M300.000 147.431 C 300.000 147.701,302.078 148.456,302.276 148.257 C 302.367 148.167,301.892 147.901,301.220 147.667 C 300.549 147.433,300.000 147.327,300.000 147.431 M284.159 149.300 C 282.407 151.321,281.887 152.000,282.090 152.000 C 282.207 152.000,282.967 151.190,283.779 150.200 C 285.281 148.366,285.579 147.663,284.159 149.300 M279.600 154.600 C 279.083 155.150,278.827 155.594,279.030 155.587 C 279.372 155.576,281.021 153.600,280.688 153.600 C 280.606 153.600,280.117 154.050,279.600 154.600 M309.375 154.900 L 308.200 156.200 309.500 155.025 C 310.215 154.379,310.800 153.794,310.800 153.725 C 310.800 153.416,310.470 153.688,309.375 154.900 M276.631 158.143 C 275.624 159.322,274.800 160.416,274.800 160.574 C 274.800 160.732,275.292 160.263,275.894 159.531 C 276.495 158.799,277.080 158.110,277.194 158.000 C 277.901 157.314,278.887 156.000,278.693 156.000 C 278.566 156.000,277.638 156.964,276.631 158.143 M305.786 158.984 C 305.574 159.284,304.800 160.266,304.066 161.165 C 303.333 162.064,302.810 162.800,302.904 162.800 C 303.202 162.800,306.494 158.761,306.329 158.596 C 306.243 158.509,305.998 158.684,305.786 158.984 M271.601 164.198 C 271.086 164.748,270.739 165.264,270.832 165.346 C 270.924 165.428,271.419 164.978,271.930 164.347 C 273.076 162.935,272.874 162.844,271.601 164.198 M299.755 166.281 C 298.907 167.316,298.422 168.034,298.677 167.876 C 299.221 167.540,301.755 164.400,301.482 164.400 C 301.380 164.400,300.603 165.247,299.755 166.281 M134.000 168.215 C 134.000 168.311,134.630 168.652,135.400 168.974 L 136.800 169.559 136.840 238.480 C 136.862 276.386,136.997 307.816,137.140 308.324 C 137.283 308.832,137.353 277.888,137.294 239.558 C 137.222 191.870,137.057 169.710,136.771 169.365 C 136.354 168.863,134.000 167.886,134.000 168.215 M266.549 170.284 C 265.477 171.540,264.809 172.439,265.064 172.283 C 265.623 171.939,268.954 168.000,268.686 168.000 C 268.582 168.000,267.620 169.028,266.549 170.284 M292.355 175.100 C 291.081 176.508,290.256 177.600,290.466 177.600 C 290.557 177.600,291.308 176.790,292.135 175.800 C 293.787 173.824,293.935 173.353,292.355 175.100 M260.549 177.484 C 259.477 178.740,258.809 179.639,259.064 179.483 C 259.623 179.139,262.954 175.200,262.686 175.200 C 262.582 175.200,261.620 176.228,260.549 177.484 M212.400 177.789 C 212.400 178.106,215.300 179.233,215.528 179.005 C 215.641 178.892,215.635 178.800,215.516 178.800 C 215.396 178.800,214.646 178.528,213.849 178.195 C 213.052 177.862,212.400 177.679,212.400 177.789 M288.355 179.900 C 287.081 181.308,286.256 182.400,286.466 182.400 C 286.557 182.400,287.308 181.590,288.135 180.600 C 289.787 178.624,289.935 178.153,288.355 179.900 M159.798 180.500 C 159.361 182.310,159.781 297.400,160.224 297.400 C 160.458 297.400,161.246 296.680,161.975 295.800 L 163.302 294.200 161.840 295.706 C 160.898 296.677,160.311 297.032,160.187 296.706 C 159.671 295.350,160.208 180.202,160.730 180.310 C 161.021 180.370,161.145 180.235,161.006 180.010 C 160.582 179.324,160.027 179.549,159.798 180.500 M217.600 180.200 C 218.150 180.514,218.780 180.772,219.000 180.772 C 219.220 180.772,218.950 180.514,218.400 180.200 C 217.850 179.886,217.220 179.628,217.000 179.628 C 216.780 179.628,217.050 179.886,217.600 180.200 M257.375 181.300 L 256.200 182.600 257.500 181.425 C 258.215 180.779,258.800 180.194,258.800 180.125 C 258.800 179.816,258.470 180.088,257.375 181.300 M253.375 186.100 L 252.200 187.400 253.500 186.225 C 254.215 185.579,254.800 184.994,254.800 184.925 C 254.800 184.616,254.470 184.888,253.375 186.100 M249.049 191.251 C 248.001 192.476,247.424 192.847,246.817 192.689 C 246.367 192.571,246.100 192.638,246.223 192.837 C 246.725 193.650,247.914 193.101,249.335 191.400 C 250.163 190.410,250.755 189.600,250.651 189.600 C 250.547 189.600,249.826 190.343,249.049 191.251 M276.434 194.153 L 275.469 195.400 276.613 194.312 C 277.243 193.714,277.677 193.153,277.579 193.065 C 277.480 192.977,276.965 193.467,276.434 194.153 M272.229 199.162 L 271.058 200.600 272.409 199.313 C 273.151 198.605,273.678 197.958,273.579 197.875 C 273.481 197.792,272.873 198.371,272.229 199.162 M206.400 200.165 C 206.400 200.367,210.768 202.408,211.148 202.384 C 211.482 202.363,209.398 201.242,207.728 200.544 C 206.998 200.239,206.400 200.068,206.400 200.165 M212.104 202.834 C 213.217 203.482,215.600 204.430,215.600 204.224 C 215.600 204.020,212.052 202.393,211.649 202.412 C 211.512 202.419,211.717 202.609,212.104 202.834 M281.200 208.189 C 281.200 208.506,284.100 209.633,284.328 209.405 C 284.441 209.292,284.435 209.200,284.316 209.200 C 284.196 209.200,283.446 208.928,282.649 208.595 C 281.852 208.262,281.200 208.079,281.200 208.189 M231.206 211.408 C 231.619 211.905,231.576 212.177,230.970 212.908 L 230.230 213.800 231.170 212.933 C 232.108 212.070,232.104 210.800,231.164 210.800 C 230.834 210.800,230.846 210.973,231.206 211.408 M227.201 217.398 C 226.686 217.948,226.339 218.464,226.432 218.546 C 226.524 218.628,227.019 218.178,227.530 217.547 C 228.676 216.135,228.474 216.044,227.201 217.398 M223.201 222.198 C 222.686 222.748,222.339 223.264,222.432 223.346 C 222.524 223.428,223.019 222.978,223.530 222.347 C 224.676 220.935,224.474 220.844,223.201 222.198 M250.949 224.684 C 249.877 225.940,249.209 226.839,249.464 226.683 C 250.023 226.339,253.354 222.400,253.086 222.400 C 252.982 222.400,252.020 223.428,250.949 224.684 M323.801 227.201 C 323.936 227.421,324.219 227.600,324.428 227.600 C 324.737 227.600,327.620 228.818,328.900 229.490 C 329.065 229.576,329.200 229.551,329.200 229.434 C 329.200 229.223,326.583 227.954,324.578 227.192 C 323.901 226.934,323.638 226.937,323.801 227.201 M247.775 228.500 L 246.600 229.800 247.900 228.625 C 248.615 227.979,249.200 227.394,249.200 227.325 C 249.200 227.016,248.870 227.288,247.775 228.500 M212.982 234.421 C 211.292 236.413,209.975 238.097,210.055 238.163 C 210.135 238.229,211.602 236.600,213.317 234.542 C 215.031 232.484,216.348 230.800,216.244 230.800 C 216.140 230.800,214.672 232.430,212.982 234.421 M243.968 233.100 C 241.609 235.743,241.074 236.400,241.282 236.400 C 241.403 236.400,242.349 235.410,243.382 234.200 C 245.296 231.960,245.755 231.098,243.968 233.100 M239.968 237.900 C 237.609 240.543,237.074 241.200,237.282 241.200 C 237.403 241.200,238.349 240.210,239.382 239.000 C 241.296 236.760,241.755 235.898,239.968 237.900 M233.968 245.100 C 231.609 247.743,231.074 248.400,231.282 248.400 C 231.403 248.400,232.349 247.410,233.382 246.200 C 235.296 243.960,235.755 243.098,233.968 245.100 M200.559 249.300 C 198.807 251.321,198.287 252.000,198.490 252.000 C 198.607 252.000,199.367 251.190,200.179 250.200 C 201.681 248.366,201.979 247.663,200.559 249.300 M229.968 249.900 C 227.609 252.543,227.074 253.200,227.282 253.200 C 227.403 253.200,228.349 252.210,229.382 251.000 C 231.296 248.760,231.755 247.898,229.968 249.900 M196.300 254.214 C 195.301 255.550,195.431 255.923,196.446 254.633 C 196.911 254.042,197.226 253.495,197.146 253.418 C 197.066 253.341,196.685 253.700,196.300 254.214 M225.626 254.922 L 224.651 256.200 225.926 255.025 C 227.251 253.803,227.403 253.585,226.900 253.622 C 226.735 253.634,226.162 254.219,225.626 254.922 M328.498 254.222 C 328.930 254.667,335.694 257.640,335.871 257.463 C 336.003 257.330,333.860 256.321,329.600 254.511 C 328.830 254.184,328.334 254.054,328.498 254.222 M194.000 257.000 C 193.483 257.550,193.227 257.994,193.430 257.987 C 193.772 257.976,195.421 256.000,195.088 256.000 C 195.006 256.000,194.517 256.450,194.000 257.000 M192.001 259.398 C 191.486 259.948,191.139 260.464,191.232 260.546 C 191.324 260.628,191.819 260.178,192.330 259.547 C 193.476 258.135,193.274 258.044,192.001 259.398 M221.634 259.753 L 220.669 261.000 221.813 259.912 C 222.443 259.314,222.877 258.753,222.779 258.665 C 222.680 258.577,222.165 259.067,221.634 259.753 M186.949 265.484 C 185.877 266.740,185.209 267.639,185.464 267.483 C 186.023 267.139,189.354 263.200,189.086 263.200 C 188.982 263.200,188.020 264.228,186.949 265.484 M216.155 266.281 C 215.307 267.316,214.822 268.034,215.077 267.876 C 215.621 267.540,218.155 264.400,217.882 264.400 C 217.780 264.400,217.003 265.247,216.155 266.281 M181.956 271.500 C 180.345 273.425,179.317 274.769,179.671 274.486 C 180.449 273.865,185.332 268.000,185.071 268.000 C 184.969 268.000,183.568 269.575,181.956 271.500 M208.755 275.100 C 207.481 276.508,206.656 277.600,206.866 277.600 C 206.957 277.600,207.708 276.790,208.535 275.800 C 210.187 273.824,210.335 273.353,208.755 275.100 M177.800 276.400 C 177.168 277.060,176.819 277.590,177.025 277.578 C 177.378 277.557,179.439 275.200,179.105 275.200 C 179.020 275.200,178.432 275.740,177.800 276.400 M173.775 281.300 L 172.600 282.600 173.900 281.425 C 175.112 280.330,175.384 280.000,175.075 280.000 C 175.006 280.000,174.421 280.585,173.775 281.300 M169.775 286.100 L 168.600 287.400 169.900 286.225 C 171.112 285.130,171.384 284.800,171.075 284.800 C 171.006 284.800,170.421 285.385,169.775 286.100 M165.968 290.700 C 163.609 293.343,163.074 294.000,163.282 294.000 C 163.403 294.000,164.349 293.010,165.382 291.800 C 167.296 289.560,167.755 288.698,165.968 290.700 M192.500 294.418 C 191.785 295.232,191.200 296.011,191.200 296.150 C 191.200 296.289,191.855 295.677,192.656 294.791 C 193.457 293.904,194.042 293.125,193.956 293.059 C 193.870 292.993,193.215 293.604,192.500 294.418 M188.629 299.162 L 187.458 300.600 188.809 299.313 C 189.551 298.605,190.078 297.958,189.979 297.875 C 189.881 297.792,189.273 298.371,188.629 299.162 M185.349 303.084 C 184.277 304.340,183.609 305.239,183.864 305.083 C 184.423 304.739,187.754 300.800,187.486 300.800 C 187.382 300.800,186.420 301.828,185.349 303.084 M180.575 308.900 L 179.400 310.200 180.700 309.025 C 181.912 307.930,182.184 307.600,181.875 307.600 C 181.806 307.600,181.221 308.185,180.575 308.900 M176.434 313.753 L 175.469 315.000 176.613 313.912 C 177.243 313.314,177.677 312.753,177.579 312.665 C 177.480 312.577,176.965 313.067,176.434 313.753 M142.000 318.200 C 142.746 318.970,143.429 319.600,143.518 319.600 C 143.854 319.600,141.382 316.856,141.022 316.829 C 140.813 316.813,141.254 317.430,142.000 318.200 M171.600 319.400 C 170.628 320.390,169.923 321.200,170.033 321.200 C 170.143 321.200,171.028 320.390,172.000 319.400 C 172.972 318.410,173.677 317.600,173.567 317.600 C 173.457 317.600,172.572 318.410,171.600 319.400 M167.210 322.458 C 164.610 323.869,164.184 324.214,165.804 323.598 C 167.098 323.106,169.600 321.636,169.600 321.367 C 169.600 321.150,169.732 321.089,167.210 322.458 M154.000 324.400 C 155.368 324.838,156.419 324.838,155.400 324.400 C 154.960 324.211,154.240 324.062,153.800 324.068 C 153.157 324.077,153.196 324.143,154.000 324.400 M162.200 324.400 C 161.696 324.617,161.622 324.744,162.000 324.744 C 162.330 324.744,162.960 324.589,163.400 324.400 C 163.904 324.183,163.978 324.056,163.600 324.056 C 163.270 324.056,162.640 324.211,162.200 324.400 " stroke="none" fill="#848484" fill-rule="evenodd"></path></g></svg>