<svg id="svg" version="1.1" xmlns="http://www.w3.org/2000/svg" xmlns:xlink="http://www.w3.org/1999/xlink" width="400" height="396.72801635991823" viewBox="0, 0, 400,396.72801635991823"><g id="svgg"><path id="path0" d="M191.468 19.048 C 191.333 19.266,190.173 19.444,188.889 19.444 C 187.605 19.444,186.456 19.604,186.335 19.799 C 186.215 19.995,185.445 20.246,184.626 20.358 C 182.343 20.670,179.245 21.417,178.478 21.841 C 178.099 22.051,177.543 22.222,177.244 22.222 C 176.944 22.222,175.558 22.781,174.163 23.465 C 172.768 24.148,171.181 24.902,170.635 25.139 C 170.089 25.377,168.929 26.028,168.056 26.587 C 167.183 27.146,165.933 27.866,165.278 28.187 C 163.596 29.011,160.921 30.820,160.326 31.537 C 160.050 31.870,159.615 32.143,159.359 32.143 C 159.104 32.143,158.099 32.963,157.126 33.965 C 156.153 34.967,154.968 35.940,154.492 36.127 C 154.016 36.314,152.919 37.414,152.054 38.571 C 151.190 39.728,149.749 41.380,148.852 42.243 C 147.956 43.106,147.222 44.016,147.222 44.265 C 147.222 44.514,146.865 45.041,146.429 45.437 C 145.992 45.832,145.635 46.325,145.635 46.532 C 145.635 46.739,145.193 47.435,144.652 48.077 C 143.467 49.485,139.285 57.821,138.511 60.317 C 138.206 61.300,137.810 62.273,137.629 62.480 C 137.449 62.687,137.302 63.257,137.302 63.746 C 137.302 64.236,137.123 64.746,136.905 64.881 C 136.687 65.016,136.508 65.641,136.508 66.270 C 136.508 66.899,136.348 67.512,136.153 67.633 C 135.744 67.886,135.356 70.120,135.082 73.810 C 134.976 75.228,134.706 76.756,134.482 77.205 C 134.009 78.153,134.247 85.219,134.902 89.683 C 135.143 91.319,135.441 93.507,135.565 94.544 C 135.689 95.580,135.952 96.429,136.149 96.429 C 136.347 96.429,136.508 97.043,136.508 97.794 C 136.508 98.545,136.687 99.270,136.905 99.405 C 137.123 99.540,137.302 100.075,137.302 100.595 C 137.302 101.115,137.480 101.651,137.698 101.786 C 137.917 101.921,138.095 102.372,138.095 102.789 C 138.095 103.206,138.452 104.183,138.889 104.960 C 139.325 105.737,139.683 106.584,139.683 106.842 C 139.683 107.566,142.845 113.782,143.482 114.311 C 143.793 114.569,144.048 114.998,144.048 115.265 C 144.048 115.532,144.405 116.073,144.841 116.468 C 145.278 116.863,145.635 117.393,145.635 117.646 C 145.635 117.899,146.171 118.619,146.825 119.246 C 147.480 119.873,148.016 120.585,148.016 120.827 C 148.016 121.640,161.226 134.127,162.086 134.127 C 162.235 134.127,163.106 134.618,164.022 135.218 C 166.934 137.126,167.188 137.271,171.184 139.289 C 173.341 140.378,175.429 141.270,175.823 141.270 C 176.218 141.270,176.633 141.420,176.747 141.604 C 176.860 141.787,178.165 142.245,179.647 142.621 C 181.129 142.997,182.651 143.472,183.030 143.676 C 183.409 143.880,184.400 144.048,185.233 144.048 C 186.065 144.048,186.916 144.210,187.123 144.408 C 188.037 145.281,207.744 146.051,209.322 145.275 C 209.760 145.059,210.923 144.792,211.905 144.682 C 214.980 144.336,216.666 143.973,216.892 143.607 C 217.012 143.413,217.714 143.254,218.452 143.254 C 219.191 143.254,219.890 143.099,220.007 142.909 C 220.125 142.720,220.895 142.457,221.720 142.325 C 222.544 142.193,223.968 141.723,224.884 141.281 C 225.800 140.838,226.692 140.476,226.867 140.476 C 228.276 140.476,242.063 132.249,242.063 131.408 C 242.063 131.251,242.616 130.797,243.292 130.398 C 244.815 129.498,250.969 123.314,252.579 121.065 C 253.234 120.151,254.261 118.808,254.861 118.081 C 255.461 117.355,255.952 116.631,255.952 116.473 C 255.952 116.316,256.445 115.446,257.048 114.542 C 259.582 110.737,263.492 101.622,263.492 99.519 C 263.492 98.936,263.671 98.349,263.889 98.214 C 264.107 98.079,264.286 97.365,264.286 96.627 C 264.286 95.889,264.464 95.175,264.683 95.040 C 264.901 94.905,265.079 93.923,265.079 92.857 C 265.079 91.792,265.258 90.809,265.476 90.675 C 265.721 90.523,265.873 87.107,265.873 81.746 C 265.873 76.385,265.721 72.969,265.476 72.817 C 265.258 72.683,265.079 71.866,265.079 71.003 C 265.079 70.140,264.917 69.124,264.718 68.745 C 264.519 68.366,264.135 66.984,263.865 65.675 C 262.714 60.085,256.573 47.234,254.700 46.495 C 254.516 46.422,254.365 46.144,254.365 45.878 C 254.365 45.611,253.740 44.711,252.976 43.877 C 252.212 43.043,251.587 42.249,251.587 42.112 C 251.587 41.687,243.712 33.730,243.291 33.730 C 243.072 33.730,242.483 33.328,241.982 32.837 C 241.481 32.346,240.402 31.498,239.586 30.952 C 238.769 30.407,238.099 29.826,238.098 29.663 C 238.096 29.499,237.898 29.365,237.657 29.365 C 237.416 29.365,236.478 28.873,235.573 28.271 C 234.669 27.669,232.679 26.554,231.151 25.792 C 229.623 25.031,228.313 24.274,228.241 24.109 C 228.168 23.944,227.713 23.810,227.229 23.810 C 226.745 23.810,226.180 23.647,225.972 23.447 C 224.892 22.410,216.065 20.012,211.706 19.572 C 210.615 19.461,209.553 19.209,209.345 19.011 C 208.819 18.508,191.780 18.543,191.468 19.048 M66.464 230.853 C 66.574 270.084,66.755 320.264,66.867 342.363 L 67.071 382.544 106.651 382.442 L 146.230 382.341 146.331 341.369 C 146.397 314.515,146.568 300.397,146.827 300.397 C 147.044 300.397,147.222 300.808,147.222 301.310 C 147.222 301.812,147.364 302.392,147.538 302.599 C 147.712 302.807,148.084 303.690,148.365 304.563 C 148.646 305.437,149.218 306.908,149.637 307.833 C 150.055 308.758,150.397 309.698,150.397 309.922 C 150.397 310.145,150.551 310.638,150.740 311.017 C 151.133 311.804,151.762 313.602,152.648 316.468 C 152.985 317.560,153.397 318.810,153.563 319.246 C 154.209 320.945,155.663 324.439,155.998 325.094 C 156.191 325.473,156.349 326.048,156.349 326.371 C 156.349 326.695,156.706 327.596,157.143 328.373 C 157.579 329.150,157.937 330.108,157.937 330.501 C 157.937 330.895,158.057 331.338,158.205 331.486 C 158.463 331.743,159.111 333.519,161.345 340.079 C 162.476 343.399,164.487 348.743,165.325 350.655 C 165.626 351.343,165.873 352.155,165.873 352.461 C 165.873 352.766,166.028 353.186,166.218 353.393 C 166.407 353.600,166.932 354.841,167.383 356.151 C 167.834 357.460,168.820 360.228,169.574 362.302 C 170.329 364.375,171.259 366.964,171.642 368.056 C 172.806 371.369,172.883 371.575,173.556 373.129 C 173.914 373.954,174.206 374.971,174.206 375.387 C 174.206 375.803,174.385 376.254,174.603 376.389 C 174.821 376.524,175.000 376.964,175.000 377.367 C 175.000 377.770,175.342 378.786,175.761 379.625 C 176.179 380.464,176.620 381.463,176.740 381.845 C 176.946 382.497,178.447 382.540,200.900 382.540 C 226.232 382.540,225.794 382.572,225.794 380.698 C 225.794 380.209,225.972 379.698,226.190 379.563 C 226.409 379.429,226.587 378.918,226.587 378.429 C 226.587 377.940,226.729 377.370,226.903 377.163 C 227.077 376.955,227.449 376.071,227.730 375.198 C 228.011 374.325,228.583 372.854,229.002 371.929 C 229.420 371.004,229.762 369.987,229.762 369.671 C 229.762 369.354,229.940 368.984,230.159 368.849 C 230.377 368.714,230.556 368.179,230.556 367.659 C 230.556 367.139,230.734 366.603,230.952 366.468 C 231.171 366.333,231.349 365.798,231.349 365.278 C 231.349 364.758,231.517 364.229,231.723 364.101 C 231.929 363.974,232.217 363.069,232.364 362.089 C 232.511 361.109,232.789 360.210,232.982 360.091 C 233.175 359.971,233.333 359.474,233.333 358.985 C 233.333 358.495,233.491 357.926,233.684 357.718 C 233.877 357.511,234.424 356.181,234.900 354.762 C 235.786 352.124,236.331 350.729,236.951 349.509 C 237.144 349.130,237.302 348.371,237.302 347.823 C 237.302 347.274,237.480 346.825,237.698 346.825 C 237.917 346.825,238.095 346.409,238.095 345.899 C 238.095 345.390,238.212 344.857,238.355 344.714 C 238.639 344.430,240.209 340.005,242.111 334.127 C 242.781 332.054,243.479 330.000,243.661 329.563 C 244.257 328.131,246.122 322.851,246.604 321.230 C 246.863 320.357,247.309 319.107,247.595 318.452 C 248.343 316.738,248.614 315.963,249.396 313.294 C 249.780 311.984,250.407 310.198,250.790 309.325 C 251.174 308.452,251.993 306.176,252.611 304.266 C 254.658 297.945,254.447 293.887,254.571 341.865 C 254.627 363.909,254.694 382.079,254.718 382.244 C 254.742 382.409,272.396 382.498,293.948 382.442 L 333.135 382.341 333.135 271.032 L 333.135 159.722 199.700 159.622 L 66.266 159.523 66.464 230.853 M357.540 346.007 C 351.966 347.716,345.238 354.535,345.238 358.474 C 345.238 358.808,345.060 359.191,344.841 359.325 C 344.618 359.463,344.444 361.372,344.444 363.690 C 344.444 366.009,344.618 367.918,344.841 368.056 C 345.060 368.190,345.238 368.629,345.238 369.031 C 345.238 373.849,354.967 381.317,361.435 381.464 C 370.398 381.666,380.159 374.779,380.159 368.253 C 380.159 367.625,380.337 367.000,380.556 366.865 C 380.774 366.730,380.952 365.123,380.952 363.294 C 380.952 361.464,380.774 359.857,380.556 359.722 C 380.337 359.587,380.159 359.035,380.159 358.495 C 380.159 356.034,376.703 351.094,373.466 348.926 C 368.949 345.902,362.024 344.632,357.540 346.007 M366.468 349.603 C 366.603 349.821,367.064 350.000,367.492 350.000 C 369.409 350.000,373.707 353.891,375.592 357.335 C 377.434 360.699,377.431 366.247,375.587 369.643 C 373.148 374.132,372.338 374.435,370.919 371.384 C 370.553 370.596,369.982 369.726,369.650 369.451 C 369.319 369.175,369.048 368.757,369.048 368.520 C 369.048 368.283,368.399 367.424,367.606 366.612 C 365.959 364.926,366.025 364.093,367.837 363.695 C 370.918 363.018,371.317 354.919,368.329 353.708 C 367.742 353.470,366.719 353.068,366.056 352.815 C 365.314 352.531,363.025 352.398,360.104 352.467 L 355.357 352.579 355.357 363.294 L 355.357 374.008 357.143 374.008 L 358.929 374.008 359.041 369.544 L 359.153 365.079 360.300 365.079 C 361.538 365.079,363.550 366.537,364.377 368.032 C 364.654 368.533,365.303 369.726,365.819 370.682 C 367.254 373.344,368.207 374.206,369.712 374.206 C 370.438 374.206,371.032 374.372,371.032 374.574 C 371.032 375.147,369.023 376.587,368.224 376.587 C 367.830 376.587,367.409 376.746,367.289 376.940 C 367.084 377.271,366.121 377.497,362.646 378.029 C 361.795 378.159,361.094 378.071,360.936 377.815 C 360.788 377.576,360.176 377.381,359.575 377.381 C 356.298 377.381,349.206 371.164,349.206 368.292 C 349.206 367.835,349.028 367.460,348.810 367.460 C 348.575 367.460,348.413 366.013,348.413 363.912 C 348.413 361.961,348.591 360.254,348.810 360.119 C 349.028 359.984,349.206 359.548,349.206 359.149 C 349.206 357.498,352.022 353.416,354.071 352.097 C 356.599 350.468,357.556 350.000,358.355 350.000 C 358.754 350.000,359.191 349.821,359.325 349.603 C 359.460 349.385,361.067 349.206,362.897 349.206 C 364.726 349.206,366.333 349.385,366.468 349.603 M366.076 356.751 C 368.311 359.221,366.467 361.508,362.240 361.508 L 359.127 361.508 359.127 358.995 C 359.127 355.884,359.051 355.952,362.505 355.952 C 364.855 355.952,365.480 356.092,366.076 356.751 " stroke="none" fill="#e41934" fill-rule="evenodd"></path><path id="path1" d="M0.000 198.413 L 0.000 396.825 200.000 396.825 L 400.000 396.825 400.000 198.413 L 400.000 0.000 200.000 0.000 L 0.000 0.000 0.000 198.413 M209.345 19.011 C 209.553 19.209,210.615 19.461,211.706 19.572 C 216.065 20.012,224.892 22.410,225.972 23.447 C 226.180 23.647,226.745 23.810,227.229 23.810 C 227.713 23.810,228.168 23.944,228.241 24.109 C 228.313 24.274,229.623 25.031,231.151 25.792 C 232.679 26.554,234.669 27.669,235.573 28.271 C 236.478 28.873,237.416 29.365,237.657 29.365 C 237.898 29.365,238.096 29.499,238.098 29.663 C 238.099 29.826,238.769 30.407,239.586 30.952 C 240.402 31.498,241.481 32.346,241.982 32.837 C 242.483 33.328,243.072 33.730,243.291 33.730 C 243.712 33.730,251.587 41.687,251.587 42.112 C 251.587 42.249,252.212 43.043,252.976 43.877 C 253.740 44.711,254.365 45.611,254.365 45.878 C 254.365 46.144,254.516 46.422,254.700 46.495 C 256.573 47.234,262.714 60.085,263.865 65.675 C 264.135 66.984,264.519 68.366,264.718 68.745 C 264.917 69.124,265.079 70.140,265.079 71.003 C 265.079 71.866,265.258 72.683,265.476 72.817 C 265.721 72.969,265.873 76.385,265.873 81.746 C 265.873 87.107,265.721 90.523,265.476 90.675 C 265.258 90.809,265.079 91.792,265.079 92.857 C 265.079 93.923,264.901 94.905,264.683 95.040 C 264.464 95.175,264.286 95.889,264.286 96.627 C 264.286 97.365,264.107 98.079,263.889 98.214 C 263.671 98.349,263.492 98.936,263.492 99.519 C 263.492 101.622,259.582 110.737,257.048 114.542 C 256.445 115.446,255.952 116.316,255.952 116.473 C 255.952 116.631,255.461 117.355,254.861 118.081 C 254.261 118.808,253.234 120.151,252.579 121.065 C 250.969 123.314,244.815 129.498,243.292 130.398 C 242.616 130.797,242.063 131.251,242.063 131.408 C 242.063 132.249,228.276 140.476,226.867 140.476 C 226.692 140.476,225.800 140.838,224.884 141.281 C 223.968 141.723,222.544 142.193,221.720 142.325 C 220.895 142.457,220.125 142.720,220.007 142.909 C 219.890 143.099,219.191 143.254,218.452 143.254 C 217.714 143.254,217.012 143.413,216.892 143.607 C 216.666 143.973,214.980 144.336,211.905 144.682 C 210.923 144.792,209.760 145.059,209.322 145.275 C 207.744 146.051,188.037 145.281,187.123 144.408 C 186.916 144.210,186.065 144.048,185.233 144.048 C 184.400 144.048,183.409 143.880,183.030 143.676 C 182.651 143.472,181.129 142.997,179.647 142.621 C 178.165 142.245,176.860 141.787,176.747 141.604 C 176.633 141.420,176.218 141.270,175.823 141.270 C 175.429 141.270,173.341 140.378,171.184 139.289 C 167.188 137.271,166.934 137.126,164.022 135.218 C 163.106 134.618,162.235 134.127,162.086 134.127 C 161.226 134.127,148.016 121.640,148.016 120.827 C 148.016 120.585,147.480 119.873,146.825 119.246 C 146.171 118.619,145.635 117.899,145.635 117.646 C 145.635 117.393,145.278 116.863,144.841 116.468 C 144.405 116.073,144.048 115.532,144.048 115.265 C 144.048 114.998,143.793 114.569,143.482 114.311 C 142.845 113.782,139.683 107.566,139.683 106.842 C 139.683 106.584,139.325 105.737,138.889 104.960 C 138.452 104.183,138.095 103.206,138.095 102.789 C 138.095 102.372,137.917 101.921,137.698 101.786 C 137.480 101.651,137.302 101.115,137.302 100.595 C 137.302 100.075,137.123 99.540,136.905 99.405 C 136.687 99.270,136.508 98.545,136.508 97.794 C 136.508 97.043,136.347 96.429,136.149 96.429 C 135.952 96.429,135.689 95.580,135.565 94.544 C 135.441 93.507,135.143 91.319,134.902 89.683 C 134.247 85.219,134.009 78.153,134.482 77.205 C 134.706 76.756,134.976 75.228,135.082 73.810 C 135.356 70.120,135.744 67.886,136.153 67.633 C 136.348 67.512,136.508 66.899,136.508 66.270 C 136.508 65.641,136.687 65.016,136.905 64.881 C 137.123 64.746,137.302 64.236,137.302 63.746 C 137.302 63.257,137.449 62.687,137.629 62.480 C 137.810 62.273,138.206 61.300,138.511 60.317 C 139.285 57.821,143.467 49.485,144.652 48.077 C 145.193 47.435,145.635 46.739,145.635 46.532 C 145.635 46.325,145.992 45.832,146.429 45.437 C 146.865 45.041,147.222 44.514,147.222 44.265 C 147.222 44.016,147.956 43.106,148.852 42.243 C 149.749 41.380,151.190 39.728,152.054 38.571 C 152.919 37.414,154.016 36.314,154.492 36.127 C 154.968 35.940,156.153 34.967,157.126 33.965 C 158.099 32.963,159.104 32.143,159.359 32.143 C 159.615 32.143,160.050 31.870,160.326 31.537 C 160.921 30.820,163.596 29.011,165.278 28.187 C 165.933 27.866,167.183 27.146,168.056 26.587 C 168.929 26.028,170.089 25.377,170.635 25.139 C 171.181 24.902,172.768 24.148,174.163 23.465 C 175.558 22.781,176.944 22.222,177.244 22.222 C 177.543 22.222,178.099 22.051,178.478 21.841 C 179.245 21.417,182.343 20.670,184.626 20.358 C 185.445 20.246,186.215 19.995,186.335 19.799 C 186.456 19.604,187.605 19.444,188.889 19.444 C 190.173 19.444,191.333 19.266,191.468 19.048 C 191.780 18.543,208.819 18.508,209.345 19.011 M333.135 271.032 L 333.135 382.341 293.948 382.442 C 272.396 382.498,254.742 382.409,254.718 382.244 C 254.694 382.079,254.627 363.909,254.571 341.865 C 254.447 293.887,254.658 297.945,252.611 304.266 C 251.993 306.176,251.174 308.452,250.790 309.325 C 250.407 310.198,249.780 311.984,249.396 313.294 C 248.614 315.963,248.343 316.738,247.595 318.452 C 247.309 319.107,246.863 320.357,246.604 321.230 C 246.122 322.851,244.257 328.131,243.661 329.563 C 243.479 330.000,242.781 332.054,242.111 334.127 C 240.209 340.005,238.639 344.430,238.355 344.714 C 238.212 344.857,238.095 345.390,238.095 345.899 C 238.095 346.409,237.917 346.825,237.698 346.825 C 237.480 346.825,237.302 347.274,237.302 347.823 C 237.302 348.371,237.144 349.130,236.951 349.509 C 236.331 350.729,235.786 352.124,234.900 354.762 C 234.424 356.181,233.877 357.511,233.684 357.718 C 233.491 357.926,233.333 358.495,233.333 358.985 C 233.333 359.474,233.175 359.971,232.982 360.091 C 232.789 360.210,232.511 361.109,232.364 362.089 C 232.217 363.069,231.929 363.974,231.723 364.101 C 231.517 364.229,231.349 364.758,231.349 365.278 C 231.349 365.798,231.171 366.333,230.952 366.468 C 230.734 366.603,230.556 367.139,230.556 367.659 C 230.556 368.179,230.377 368.714,230.159 368.849 C 229.940 368.984,229.762 369.354,229.762 369.671 C 229.762 369.987,229.420 371.004,229.002 371.929 C 228.583 372.854,228.011 374.325,227.730 375.198 C 227.449 376.071,227.077 376.955,226.903 377.163 C 226.729 377.370,226.587 377.940,226.587 378.429 C 226.587 378.918,226.409 379.429,226.190 379.563 C 225.972 379.698,225.794 380.209,225.794 380.698 C 225.794 382.572,226.232 382.540,200.900 382.540 C 178.447 382.540,176.946 382.497,176.740 381.845 C 176.620 381.463,176.179 380.464,175.761 379.625 C 175.342 378.786,175.000 377.770,175.000 377.367 C 175.000 376.964,174.821 376.524,174.603 376.389 C 174.385 376.254,174.206 375.803,174.206 375.387 C 174.206 374.971,173.914 373.954,173.556 373.129 C 172.883 371.575,172.806 371.369,171.642 368.056 C 171.259 366.964,170.329 364.375,169.574 362.302 C 168.820 360.228,167.834 357.460,167.383 356.151 C 166.932 354.841,166.407 353.600,166.218 353.393 C 166.028 353.186,165.873 352.766,165.873 352.461 C 165.873 352.155,165.626 351.343,165.325 350.655 C 164.487 348.743,162.476 343.399,161.345 340.079 C 159.111 333.519,158.463 331.743,158.205 331.486 C 158.057 331.338,157.937 330.895,157.937 330.501 C 157.937 330.108,157.579 329.150,157.143 328.373 C 156.706 327.596,156.349 326.695,156.349 326.371 C 156.349 326.048,156.191 325.473,155.998 325.094 C 155.663 324.439,154.209 320.945,153.563 319.246 C 153.397 318.810,152.985 317.560,152.648 316.468 C 151.762 313.602,151.133 311.804,150.740 311.017 C 150.551 310.638,150.397 310.145,150.397 309.922 C 150.397 309.698,150.055 308.758,149.637 307.833 C 149.218 306.908,148.646 305.437,148.365 304.563 C 148.084 303.690,147.712 302.807,147.538 302.599 C 147.364 302.392,147.222 301.812,147.222 301.310 C 147.222 300.808,147.044 300.397,146.827 300.397 C 146.568 300.397,146.397 314.515,146.331 341.369 L 146.230 382.341 106.651 382.442 L 67.071 382.544 66.867 342.363 C 66.755 320.264,66.574 270.084,66.464 230.853 L 66.266 159.523 199.700 159.622 L 333.135 159.722 333.135 271.032 M368.805 346.446 C 371.828 347.577,375.748 350.296,377.075 352.183 C 378.804 354.641,380.159 357.414,380.159 358.495 C 380.159 359.035,380.337 359.587,380.556 359.722 C 380.774 359.857,380.952 361.464,380.952 363.294 C 380.952 365.123,380.774 366.730,380.556 366.865 C 380.337 367.000,380.159 367.625,380.159 368.253 C 380.159 374.779,370.398 381.666,361.435 381.464 C 354.967 381.317,345.238 373.849,345.238 369.031 C 345.238 368.629,345.060 368.190,344.841 368.056 C 344.618 367.918,344.444 366.009,344.444 363.690 C 344.444 361.372,344.618 359.463,344.841 359.325 C 345.060 359.191,345.238 358.808,345.238 358.474 C 345.238 357.200,347.898 352.581,349.687 350.750 C 354.255 346.074,362.719 344.169,368.805 346.446 M359.325 349.603 C 359.191 349.821,358.754 350.000,358.355 350.000 C 357.556 350.000,356.599 350.468,354.071 352.097 C 352.022 353.416,349.206 357.498,349.206 359.149 C 349.206 359.548,349.028 359.984,348.810 360.119 C 348.591 360.254,348.413 361.961,348.413 363.912 C 348.413 366.013,348.575 367.460,348.810 367.460 C 349.028 367.460,349.206 367.835,349.206 368.292 C 349.206 371.164,356.298 377.381,359.575 377.381 C 360.176 377.381,360.788 377.576,360.936 377.815 C 361.094 378.071,361.795 378.159,362.646 378.029 C 366.121 377.497,367.084 377.271,367.289 376.940 C 367.409 376.746,367.830 376.587,368.224 376.587 C 369.023 376.587,371.032 375.147,371.032 374.574 C 371.032 374.372,370.438 374.206,369.712 374.206 C 368.207 374.206,367.254 373.344,365.819 370.682 C 365.303 369.726,364.654 368.533,364.377 368.032 C 363.550 366.537,361.538 365.079,360.300 365.079 L 359.153 365.079 359.041 369.544 L 358.929 374.008 357.143 374.008 L 355.357 374.008 355.357 363.294 L 355.357 352.579 360.104 352.467 C 363.025 352.398,365.314 352.531,366.056 352.815 C 366.719 353.068,367.742 353.470,368.329 353.708 C 371.317 354.919,370.918 363.018,367.837 363.695 C 366.025 364.093,365.959 364.926,367.606 366.612 C 368.399 367.424,369.048 368.283,369.048 368.520 C 369.048 368.757,369.319 369.175,369.650 369.451 C 369.982 369.726,370.553 370.596,370.919 371.384 C 372.338 374.435,373.148 374.132,375.587 369.643 C 377.431 366.247,377.434 360.699,375.592 357.335 C 373.707 353.891,369.409 350.000,367.492 350.000 C 367.064 350.000,366.603 349.821,366.468 349.603 C 366.333 349.385,364.726 349.206,362.897 349.206 C 361.067 349.206,359.460 349.385,359.325 349.603 M359.392 356.217 C 359.246 356.362,359.127 357.612,359.127 358.995 L 359.127 361.508 362.240 361.508 C 365.766 361.508,366.799 360.878,366.799 358.730 C 366.799 356.466,361.082 354.526,359.392 356.217 " stroke="none" fill="#f3f3f3" fill-rule="evenodd"></path></g></svg>